<svg width="80" height="80" fill="none" xmlns="http://www.w3.org/2000/svg"><path d="M40 80c22.091 0 40-17.909 40-40S62.091 0 40 0 0 17.909 0 40s17.909 40 40 40z" fill="#EF86B0"/><path d="M40 76c19.882 0 36-16.118 36-36S59.882 4 40 4 4 20.118 4 40s16.118 36 36 36z" fill="#fff"/><path fill-rule="evenodd" clip-rule="evenodd" d="M38.19 49.665h3.62a2.576 2.576 0 002.575-2.57V28.57A2.576 2.576 0 0041.81 26h-3.62a2.576 2.576 0 00-2.575 2.57v18.524a2.576 2.576 0 002.575 2.571zm-.442-21.094c0-.243.198-.441.442-.441h3.62c.244 0 .442.198.442.44v18.524a.442.442 0 01-.442.441h-3.62a.442.442 0 01-.442-.44V28.57zm-9.514 21.094h3.62a2.576 2.576 0 002.575-2.57V36.853a2.576 2.576 0 00-2.575-2.571h-3.62a2.576 2.576 0 00-2.575 2.57v10.241a2.576 2.576 0 002.575 2.571zm-.441-12.811c0-.243.198-.441.441-.441h3.62c.244 0 .442.198.442.44v10.241a.442.442 0 01-.442.441h-3.62a.442.442 0 01-.441-.44V36.853zm23.973 12.811h-3.62a2.576 2.576 0 01-2.575-2.57v-6.928a2.576 2.576 0 012.575-2.57h3.62a2.576 2.576 0 012.575 2.57v6.927a2.576 2.576 0 01-2.575 2.571zm0-9.939h-3.62a.442.442 0 00-.442.441v6.927c0 .243.198.441.442.441h3.62a.442.442 0 00.441-.44v-6.928a.442.442 0 00-.441-.441zm-26.7 11.123h29.867a1.066 1.066 0 110 2.13H25.067a1.066 1.066 0 110-2.13z" fill="#56597A"/></svg>