<svg width="80" height="80" fill="none" xmlns="http://www.w3.org/2000/svg"><path d="M40 80c22.091 0 40-17.909 40-40S62.091 0 40 0 0 17.909 0 40s17.909 40 40 40z" fill="#B4C7E7"/><path d="M40 76c19.882 0 36-16.118 36-36S59.882 4 40 4 4 20.118 4 40s16.118 36 36 36z" fill="#fff"/><path fill-rule="evenodd" clip-rule="evenodd" d="M52.176 27.961l-11.828-3.905a1.113 1.113 0 00-.696 0L27.823 27.96a1.09 1.09 0 00-.752 1.034v14.2c0 3.053 2.143 6.137 6.37 9.167 3.014 2.16 5.984 3.487 6.11 3.543a1.11 1.11 0 00.899 0c.125-.056 3.095-1.382 6.11-3.543 4.226-3.03 6.369-6.114 6.369-9.167v-14.2c0-.47-.303-.886-.753-1.034zm-1.448 15.234c0 4.508-7.358 8.923-10.728 10.514-3.371-1.589-10.728-5.999-10.728-10.514V29.78L40 26.238l10.728 3.542v13.415zM39.652 28.936l-7.957 2.627a1.09 1.09 0 00-.752 1.034v9.552c0 2.175 1.491 4.346 4.433 6.456a26.235 26.235 0 004.174 2.42 1.108 1.108 0 00.9 0 26.247 26.247 0 004.174-2.42c2.942-2.11 4.433-4.281 4.433-6.456v-9.552c0-.47-.303-.886-.752-1.034l-7.957-2.627a1.107 1.107 0 00-.696 0zm7.205 4.446v8.767c0 2.783-4.59 5.58-6.856 6.677-2.181-1.062-6.858-3.91-6.858-6.677v-8.767L40 31.12l6.857 2.263z" fill="#56597A"/></svg>