<svg width="80" height="80" fill="none" xmlns="http://www.w3.org/2000/svg"><path d="M40 80c22.091 0 40-17.909 40-40S62.091 0 40 0 0 17.909 0 40s17.909 40 40 40z" fill="#F7D06F"/><path d="M40 76c19.882 0 36-16.118 36-36S59.882 4 40 4 4 20.118 4 40s16.118 36 36 36z" fill="#fff"/><path fill-rule="evenodd" clip-rule="evenodd" d="M39.984 41.943c4.442 0 8.019-5.388 8.019-9.85S44.406 24 39.983 24c-4.421 0-8.019 3.63-8.019 8.093 0 4.462 3.577 9.85 8.02 9.85zm0-15.813c3.258 0 5.909 2.675 5.909 5.963 0 3.403-2.782 7.72-5.91 7.72-3.126 0-5.908-4.317-5.908-7.72 0-3.288 2.65-5.963 5.909-5.963zm14.558 26.14l.41 2.49a1.07 1.07 0 01-.235.862 1.05 1.05 0 01-.805.377H26.055c-.31 0-.604-.138-.805-.377a1.071 1.071 0 01-.236-.863l.411-2.488c.856-5.183 5.256-8.944 10.462-8.944h8.194c5.205 0 9.605 3.761 10.461 8.943zm-14.558-5.76l1.226-1.051h-2.452l1.226 1.051zm9.76 7.361v-2.449a1.06 1.06 0 00-1.055-1.065 1.06 1.06 0 00-1.055 1.065v2.45h-15.3v-2.45a1.06 1.06 0 00-1.056-1.065 1.06 1.06 0 00-1.055 1.065v2.45h-2.922l.206-1.25c.665-4.025 3.999-6.98 8.002-7.155l3.791 3.252a1.047 1.047 0 001.367 0l3.791-3.252c4.004.176 7.337 3.13 8.002 7.156l.206 1.248h-2.922z" fill="#56597A"/></svg>