<svg width="181" height="54" viewBox="0 0 181 54" fill="none" xmlns="http://www.w3.org/2000/svg">
<path d="M87.3097 21.2756H93.2045C93.1193 16.0909 88.858 12.5114 82.3807 12.5114C76.0028 12.5114 71.3295 16.0341 71.358 21.3182C71.3438 25.608 74.3693 28.0653 79.2841 29.2443L82.4517 30.0398C85.6193 30.8068 87.3807 31.7159 87.3949 33.6761C87.3807 35.8068 85.3636 37.2557 82.2386 37.2557C79.0426 37.2557 76.7415 35.7784 76.5426 32.8665H70.5909C70.7472 39.1591 75.25 42.4119 82.3097 42.4119C89.4119 42.4119 93.5881 39.017 93.6023 33.6903C93.5881 28.8466 89.9375 26.2756 84.8807 25.1392L82.267 24.5142C79.7386 23.9318 77.6222 22.9943 77.6648 20.9062C77.6648 19.0312 79.3267 17.6534 82.3381 17.6534C85.2784 17.6534 87.0824 18.9886 87.3097 21.2756ZM97.7393 42H117.398V36.929H103.89V29.983H116.333V24.9119H103.89V17.9801H117.342V12.9091H97.7393V42ZM148.964 27.4545C148.964 17.9375 143.055 12.5114 135.342 12.5114C127.587 12.5114 121.72 17.9375 121.72 27.4545C121.72 36.929 127.587 42.3977 135.342 42.3977C143.055 42.3977 148.964 36.9716 148.964 27.4545ZM142.729 27.4545C142.729 33.6193 139.803 36.9574 135.342 36.9574C130.868 36.9574 127.956 33.6193 127.956 27.4545C127.956 21.2898 130.868 17.9517 135.342 17.9517C139.803 17.9517 142.729 21.2898 142.729 27.4545Z" fill="white"/>
<rect y="34.7583" width="26" height="26" transform="rotate(-45 0 34.7583)" fill="#EF86B0"/>
<rect opacity="0.6" x="14.6265" y="34.7583" width="26" height="26" transform="rotate(-45 14.6265 34.7583)" fill="white"/>
<rect opacity="0.2" x="6.62646" y="18.3848" width="26" height="26" transform="rotate(-45 6.62646 18.3848)" fill="white"/>
</svg>
