<svg width="80" height="80" fill="none" xmlns="http://www.w3.org/2000/svg"><path d="M40 80c22.091 0 40-17.909 40-40S62.091 0 40 0 0 17.909 0 40s17.909 40 40 40z" fill="#74A2D6"/><path d="M40 76c19.882 0 36-16.118 36-36S59.882 4 40 4 4 20.118 4 40s16.118 36 36 36z" fill="#fff"/><path fill-rule="evenodd" clip-rule="evenodd" d="M55.702 27.899a1.075 1.075 0 00-.825-.385h-4.395c.264-1.265.47-2.197.475-2.22a1.059 1.059 0 00-.212-.896A1.074 1.074 0 0049.91 24H30.04c-.325 0-.632.146-.836.398a1.06 1.06 0 00-.212.895c.006.024.21.956.475 2.221h-4.395c-.319 0-.621.141-.825.385a1.06 1.06 0 00-.229.876l.682 3.616c.636 3.372 3.392 5.852 6.63 6.027.593 1.808 1.788 3.38 4.451 4.319l1.132 4.105h-.477a3.328 3.328 0 00-3.237 2.51l-1.34 5.325a1.06 1.06 0 00.195.913c.203.259.514.41.845.41H47.05c.33 0 .643-.151.846-.41a1.06 1.06 0 00.195-.913l-1.34-5.324a3.328 3.328 0 00-3.238-2.511h-.477l1.132-4.105c2.663-.94 3.858-2.511 4.452-4.319 3.237-.175 5.994-2.655 6.63-6.027l.68-3.616a1.06 1.06 0 00-.228-.876zm-28.894 4.1l-.444-2.355H29.9c.329 1.665.641 3.384.727 4.305l.047.513c.053.587.106 1.177.183 1.76-1.997-.368-3.637-2.03-4.05-4.222zM44.67 49.87a1.19 1.19 0 00-1.157-.897h-7.077a1.19 1.19 0 00-1.157.897l-1.007 4.001h11.405l-1.007-4zm2.479-15.707v.001l-.01.11c-.3 3.327-.498 5.525-4.16 6.609-.354.105-.63.384-.727.74l-1.44 5.22h-1.675l-1.44-5.22a1.068 1.068 0 00-.728-.74c-3.66-1.084-3.859-3.282-4.159-6.61l-.008-.09-.039-.43c-.156-1.672-.96-5.577-1.396-7.622h17.216c-.436 2.045-1.24 5.95-1.397 7.622l-.037.41zm1.942 2.06c1.997-.368 3.637-2.03 4.05-4.222l.444-2.356h-3.537c-.329 1.665-.641 3.384-.727 4.305l-.047.513a42.439 42.439 0 01-.183 1.76z" fill="#56597A"/></svg>