<svg width="176" height="176" fill="none" xmlns="http://www.w3.org/2000/svg"><path d="M88 176c48.601 0 88-39.399 88-88S136.601 0 88 0 0 39.399 0 88s39.399 88 88 88z" fill="#B4C7E7"/><path d="M88 164c41.974 0 76-34.026 76-76s-34.026-76-76-76-76 34.026-76 76 34.026 76 76 76z" fill="#fff"/><path fill-rule="evenodd" clip-rule="evenodd" d="M114.552 56H61.323A5.335 5.335 0 0056 61.333v53.334A5.335 5.335 0 0061.323 120h53.229a5.334 5.334 0 005.323-5.333V61.333A5.334 5.334 0 00114.552 56zm3.194 58.667c0 1.767-1.43 3.2-3.194 3.2H61.323a3.197 3.197 0 01-3.194-3.2v-48h59.617v48zM58.129 64.533h59.617v-3.2c0-1.767-1.43-3.2-3.194-3.2H61.323a3.197 3.197 0 00-3.194 3.2v3.2z" fill="#56597A"/><path fill-rule="evenodd" clip-rule="evenodd" d="M63.452 60.267h-1.064a1.066 1.066 0 000 2.133h1.064a1.066 1.066 0 000-2.133zm4.663.085a.974.974 0 00-.81 0 1.23 1.23 0 00-.35.224 1.083 1.083 0 000 1.515c.103.094.222.17.35.224.259.113.552.113.81 0 .129-.055.248-.13.351-.224a1.083 1.083 0 000-1.515 1.232 1.232 0 00-.351-.224zm4.262-.01c-.4-.166-.86-.074-1.164.234-.094.104-.17.223-.224.352a1.006 1.006 0 000 .81c.054.13.13.249.224.353a1.08 1.08 0 001.512 0c.094-.104.17-.223.223-.352a.898.898 0 00.085-.406 1.066 1.066 0 00-.656-.99zm41.111-.075H77.292a1.066 1.066 0 000 2.133h36.196c.588 0 1.064-.478 1.064-1.067s-.476-1.066-1.064-1.066z" fill="#56597A"/><path fill-rule="evenodd" clip-rule="evenodd" d="M72.345 106.795c.048.044.1.084.157.118a21.175 21.175 0 0015.446 6.687 21.175 21.175 0 0015.442-6.697.915.915 0 00.149-.106c.035-.049.066-.101.092-.156 7.47-8.12 7.47-20.625 0-28.745l-.005-.002a.957.957 0 00-.091-.155.967.967 0 00-.159-.12 21.175 21.175 0 00-15.436-6.684 21.176 21.176 0 00-15.437 6.684.946.946 0 00-.158.12c-.035.049-.066.1-.092.155-7.47 8.12-7.47 20.625 0 28.745.026.054.057.107.092.156zm21.4 3.762a19.616 19.616 0 003.625-6.72v-.003a19.467 19.467 0 013.761 2.318 19.153 19.153 0 01-7.386 4.405zm4.228-8.797a21.565 21.565 0 014.627 2.843 19.112 19.112 0 004.446-11.27h-7.958a38.092 38.092 0 01-1.114 8.427zm9.073-10.56h-7.958a38.105 38.105 0 00-1.114-8.427 21.585 21.585 0 004.626-2.84 19.112 19.112 0 014.446 11.267zM97.37 80.696a19.478 19.478 0 003.761-2.318 19.157 19.157 0 00-7.386-4.405 19.614 19.614 0 013.625 6.724zm-8.368-7.48c2.61.685 4.917 3.828 6.372 8.278-2.055.71-4.2 1.12-6.372 1.215v-9.493zm6.958 10.348a24.579 24.579 0 01-6.958 1.28V91.2h7.958a36.175 36.175 0 00-1-7.636zm-6.958 9.77h7.958a36.177 36.177 0 01-1 7.634 24.553 24.553 0 00-6.958-1.278v-6.357zm6.372 9.706c-2.055-.71-4.2-1.12-6.372-1.216v9.494c2.61-.684 4.917-3.828 6.372-8.278zm-20.63 3.109a19.502 19.502 0 013.761-2.312v-.003a19.618 19.618 0 003.625 6.72 19.156 19.156 0 01-7.386-4.405zm5.757-3.11c1.455 4.45 3.763 7.594 6.372 8.278v-9.493a22.557 22.557 0 00-6.372 1.215zm6.372-3.35c-2.369.09-4.712.521-6.958 1.281a36.188 36.188 0 01-1-7.637h7.958v6.357zM78.915 91.2h7.958v-6.356a24.574 24.574 0 01-6.958-1.278 36.176 36.176 0 00-1 7.634zm7.958-17.985v9.494a22.569 22.569 0 01-6.372-1.216c1.455-4.45 3.763-7.593 6.372-8.278zm-8.368 7.482a19.614 19.614 0 013.625-6.727 19.155 19.155 0 00-7.386 4.404 19.48 19.48 0 003.761 2.32v.003zm-5.23-.766a21.588 21.588 0 004.627 2.842 38.1 38.1 0 00-1.115 8.427H68.83a19.114 19.114 0 014.446-11.27zm4.627 21.829a38.109 38.109 0 01-1.115-8.427H68.83a19.117 19.117 0 004.446 11.268 21.585 21.585 0 014.627-2.841z" fill="#B4C7E7"/></svg>