<svg width="80" height="80" fill="none" xmlns="http://www.w3.org/2000/svg"><path d="M40 80c22.091 0 40-17.909 40-40S62.091 0 40 0 0 17.909 0 40s17.909 40 40 40z" fill="#F7D06F"/><path d="M40 76c19.882 0 36-16.118 36-36S59.882 4 40 4 4 20.118 4 40s16.118 36 36 36z" fill="#fff"/><path fill-rule="evenodd" clip-rule="evenodd" d="M36.988 36.182h11.739c1.786 0 3.24 1.481 3.24 3.302v12.215c0 1.82-1.454 3.301-3.24 3.301H31.273c-1.786 0-3.24-1.48-3.24-3.301V39.484c0-1.82 1.454-3.302 3.24-3.302h.165v-4.457c0-4.81 3.84-8.725 8.562-8.725 4.721 0 8.562 3.914 8.562 8.726 0 .604-.48 1.093-1.073 1.093h-3.404c-.593 0-1.073-.49-1.073-1.094 0-1.692-1.351-3.069-3.012-3.069-1.66 0-3.012 1.377-3.012 3.07v4.456zM40 25.187c-3.538 0-6.416 2.933-6.416 6.538v4.457h1.258v-4.457c0-2.898 2.314-5.256 5.158-5.256 2.476 0 4.55 1.787 5.046 4.163h1.28c-.512-3.087-3.154-5.445-6.326-5.445zM49.82 51.7c0 .614-.49 1.114-1.093 1.114H31.273c-.603 0-1.093-.5-1.093-1.114V39.484c0-.615.49-1.114 1.093-1.114h17.454c.603 0 1.093.5 1.093 1.114v12.215zm-7.221-10.753a3.725 3.725 0 00-2.842-1.04c-1.886.12-3.409 1.658-3.544 3.578a3.927 3.927 0 001.2 3.114v2.642c0 1.41 1.127 2.558 2.511 2.558 1.385 0 2.51-1.148 2.51-2.559v-2.506a3.918 3.918 0 00.164-5.788zm-1.775 4.276a1.098 1.098 0 00-.536.947v3.07a.368.368 0 01-.364.372.368.368 0 01-.364-.371v-3.166a1.1 1.1 0 00-.476-.91 1.681 1.681 0 01-.73-1.524c.058-.819.733-1.5 1.538-1.552.036-.002.072-.004.108-.004.422 0 .82.16 1.13.456.335.321.52.757.52 1.226 0 .598-.316 1.156-.826 1.456z" fill="#56597A"/></svg>