<svg width="176" height="176" fill="none" xmlns="http://www.w3.org/2000/svg"><path d="M88 176c48.601 0 88-39.399 88-88S136.601 0 88 0 0 39.399 0 88s39.399 88 88 88z" fill="#F7D06F"/><path d="M88 164c41.974 0 76-34.026 76-76s-34.026-76-76-76-76 34.026-76 76 34.026 76 76 76z" fill="#fff"/><path fill-rule="evenodd" clip-rule="evenodd" d="M60.282 82.625c0-12.345 10.008-22.353 22.353-22.353 12.34.013 22.34 10.013 22.354 22.353 0 12.346-10.008 22.354-22.354 22.354-12.345 0-22.353-10.008-22.353-22.354zm38.87-11.634a20.203 20.203 0 00-16.517-8.59 20.253 20.253 0 00-19.764 15.967h3.949a4.25 4.25 0 018.364 1.064 4.201 4.201 0 01-.603 2.15l4.84 4.84a4.128 4.128 0 014.3 0l6.97-6.97a4.201 4.201 0 01-.604-2.149 4.258 4.258 0 014.257-4.258 4.2 4.2 0 012.146.607l2.661-2.661zm-2.679 6.312a2.129 2.129 0 11-4.257 0 2.129 2.129 0 014.257 0zM81.571 92.205a2.129 2.129 0 100-4.257 2.129 2.129 0 000 4.257zm-8.516-12.773a2.129 2.129 0 11-4.257 0 2.129 2.129 0 014.257 0zm9.58 23.418a20.207 20.207 0 009.827-2.541c9.757-5.417 13.275-17.718 7.857-27.475l-2.32 2.32a4.2 4.2 0 01.603 2.149 4.258 4.258 0 01-4.258 4.258 4.2 4.2 0 01-2.149-.604l-6.97 6.97a4.2 4.2 0 01.604 2.15 4.258 4.258 0 01-8.516 0 4.2 4.2 0 01.604-2.15l-4.841-4.84a4.2 4.2 0 01-2.15.603 4.258 4.258 0 01-4.106-3.194h-4.295a20.2 20.2 0 00-.114 2.157c.008 11.162 9.062 20.204 20.224 20.197z" fill="#F7D06F"/><path fill-rule="evenodd" clip-rule="evenodd" d="M109.247 66.659a4.258 4.258 0 004.106-3.194h6.538v-2.129h-6.538a4.258 4.258 0 00-4.106-3.193 4.258 4.258 0 00-4.258 4.258c.004.758.212 1.5.603 2.149l-1.87 1.87c-8.948-11.658-25.654-13.855-37.313-4.906-11.658 8.948-13.855 25.654-4.906 37.312 8.447 11.005 23.93 13.675 35.575 6.134l3.212 3.212 1.506 1.505 8.568 8.569a5.581 5.581 0 007.892-7.892l-8.569-8.569-1.505-1.505-3.212-3.212a26.526 26.526 0 000-28.885l2.129-2.129a4.2 4.2 0 002.148.605zm0-6.387a2.13 2.13 0 110 4.259 2.13 2.13 0 010-4.259zm7.56 56.469a3.453 3.453 0 00-.056-4.882l-8.569-8.568-4.881 4.881 8.568 8.569.056.055a3.453 3.453 0 004.882-.055zm-10.13-14.956l-4.881 4.882-2.947-2.946c.086-.066.169-.136.251-.205.062-.052.124-.105.188-.155a26.633 26.633 0 001.456-1.261l.051-.048c.436-.409.859-.832 1.268-1.268l.12-.128c.066-.07.133-.14.199-.213a26.128 26.128 0 00.99-1.166c.05-.064.103-.126.155-.188.069-.082.138-.165.204-.25l2.946 2.946zm-5.174-3.575c.365-.442.711-.9 1.046-1.369a24.519 24.519 0 000-28.508c-7.872-11.02-23.187-13.57-34.206-5.698-11.02 7.872-13.57 23.187-5.698 34.206 7.872 11.019 23.187 13.57 34.206 5.698.469-.335.927-.681 1.369-1.046.067-.056.132-.114.197-.171a8.65 8.65 0 01.183-.159 22.776 22.776 0 001.564-1.47 24.02 24.02 0 001.009-1.103l.117-.134c.072-.081.144-.163.213-.246z" fill="#56597A"/></svg>