<svg width="176" height="176" fill="none" xmlns="http://www.w3.org/2000/svg"><path d="M88 176c48.601 0 88-39.399 88-88S136.601 0 88 0 0 39.399 0 88s39.399 88 88 88z" fill="#EF86B0"/><path d="M88 164c41.974 0 76-34.026 76-76s-34.026-76-76-76-76 34.026-76 76 34.026 76 76 76z" fill="#fff"/><path fill-rule="evenodd" clip-rule="evenodd" d="M89.583 86.36a1.252 1.252 0 00-1.769 0 1.247 1.247 0 000 1.764c.489.486 1.28.486 1.769 0a1.247 1.247 0 000-1.764zm7.07-15.88a6.256 6.256 0 018.839 0 6.227 6.227 0 010 8.822c-2.437 2.432-6.402 2.431-8.84 0a6.238 6.238 0 010-8.822zm1.768 7.058a3.76 3.76 0 005.303 0 3.736 3.736 0 000-5.293 3.754 3.754 0 00-5.304 0 3.743 3.743 0 000 5.293z" fill="#EF86B0"/><path fill-rule="evenodd" clip-rule="evenodd" d="M119.634 56.365a1.249 1.249 0 00-.929-.364c-.283.01-7.012.28-15.011 3.102-6.41 2.259-11.753 5.493-15.88 9.612a47.47 47.47 0 00-2.687 2.919c-4.08-2.398-7.35-1.646-9.418-.542-4.76 2.543-7.707 9.447-7.707 14.384a1.248 1.248 0 001.25 1.248c.326 0 .645-.127.885-.365 2.51-2.506 5.606-2.35 6.618-2.217l.438.437a43.82 43.82 0 00-2.065 6.06 3.525 3.525 0 00.151 2.167 11.84 11.84 0 00-3.375 2.375c-3.218 3.212-3.871 11.038-3.897 11.37a1.247 1.247 0 001.344 1.341c.332-.026 8.174-.678 11.392-3.889a11.833 11.833 0 002.38-3.368 3.54 3.54 0 002.172.15c1.981-.508 4.02-1.2 6.07-2.06l.438.436c.133 1.01.29 4.1-2.22 6.606a1.245 1.245 0 00-.272 1.359c.194.466.65.77 1.155.77 4.948 0 11.865-2.94 14.412-7.691 1.107-2.063 1.86-5.327-.543-9.4 1.019-.86 2-1.758 2.925-2.681 4.128-4.12 7.368-9.452 9.631-15.85 2.827-7.983 3.098-14.7 3.108-14.982a1.246 1.246 0 00-.365-.927zM70.797 82.793c.776-3.75 3.032-7.866 6.092-9.5 2.045-1.093 4.28-.986 6.656.313a50.426 50.426 0 00-5.252 8.544.188.188 0 01-.018-.018 1.289 1.289 0 00-.643-.37c-.172-.039-3.48-.749-6.835 1.03zm-.121 22.435c2.548-.369 6.58-1.274 8.299-2.99.963-.96 1.692-2.074 2.103-3.194l-4.206-4.198c-1.122.41-2.238 1.139-3.2 2.1-1.72 1.715-2.626 5.738-2.996 8.282zm13.998-6.86c-.362.092-.781-.044-1.093-.354l-2.448-2.443-3.228-3.222c-.312-.312-.448-.73-.355-1.09.4-1.557.924-3.154 1.56-4.766L89.447 96.81a40.613 40.613 0 01-4.773 1.558zm8.481 6.739c3.758-.775 7.881-3.026 9.519-6.08 1.094-2.04.987-4.271-.314-6.643a50.55 50.55 0 01-8.56 5.241c.002.004.01.011.022.023.068.067.271.264.358.608.438 1.737.173 4.601-1.025 6.851zm12.338-18.748a45.606 45.606 0 01-3.605 3.228 48.057 48.057 0 01-9.965 6.165L80.17 84.023a47.907 47.907 0 016.177-9.945 45.316 45.316 0 013.235-3.599c3.703-3.695 8.482-6.637 14.209-8.754l10.473 10.453c-2.121 5.715-5.068 10.485-8.771 14.181zm.934-25.532l8.737 8.72c1.478-4.75 2.032-8.883 2.231-10.947-2.067.199-6.208.751-10.968 2.227z" fill="#56597A"/><path fill-rule="evenodd" clip-rule="evenodd" d="M86.046 107.531a1.251 1.251 0 00-1.768 0l-3.535 3.529a1.246 1.246 0 000 1.764c.49.487 1.28.487 1.769 0l3.535-3.529a1.246 1.246 0 000-1.764zM68.37 89.888a1.252 1.252 0 00-1.769 0l-3.536 3.528a1.246 1.246 0 000 1.764c.488.487 1.28.487 1.768 0l3.536-3.528a1.246 1.246 0 000-1.764zm8.838 19.408a1.252 1.252 0 00-1.768 0l-8.467 8.45a1.245 1.245 0 000 1.764 1.251 1.251 0 001.767 0l8.468-8.45a1.245 1.245 0 000-1.764zm-10 0a1.252 1.252 0 00-1.768 0l-8.467 8.45a1.245 1.245 0 000 1.764 1.251 1.251 0 001.767 0l8.468-8.45a1.245 1.245 0 000-1.764zM66.6 98.709a1.252 1.252 0 00-1.767 0l-8.467 8.451a1.245 1.245 0 000 1.764c.489.487 1.28.487 1.768 0l8.466-8.451a1.246 1.246 0 000-1.764zm28.285-17.643a1.252 1.252 0 00-1.767 0L91.35 82.83a1.246 1.246 0 000 1.764 1.25 1.25 0 001.768 0l1.767-1.764a1.246 1.246 0 000-1.764z" fill="#EF86B0"/></svg>