<svg width="80" height="80" fill="none" xmlns="http://www.w3.org/2000/svg"><path d="M40 80c22.091 0 40-17.909 40-40S62.091 0 40 0 0 17.909 0 40s17.909 40 40 40z" fill="#74A2D6"/><path d="M40 76c19.882 0 36-16.118 36-36S59.882 4 40 4 4 20.118 4 40s16.118 36 36 36z" fill="#fff"/><path fill-rule="evenodd" clip-rule="evenodd" d="M54.819 26H25.074C24.48 26 24 26.476 24 27.063v5.266c0 .587.48 1.063 1.074 1.063h1.328l9.813 11.418v12.117c0 .392.218.752.567.937a1.08 1.08 0 001.102-.053l5.316-3.508a1.06 1.06 0 00.478-.884v-8.61l9.812-11.417h1.329c.593 0 1.074-.476 1.074-1.063v-5.266c0-.587-.481-1.063-1.074-1.063zM41.786 43.73a1.056 1.056 0 00-.256.689v8.43l-3.168 2.091V44.42c0-.253-.09-.497-.256-.69l-8.884-10.337H50.67L41.786 43.73zM26.148 31.266h27.597v-3.14H26.148v3.14z" fill="#56597A"/></svg>