<svg width="53" height="40" fill="none" xmlns="http://www.w3.org/2000/svg"><path fill-rule="evenodd" clip-rule="evenodd" d="M33.125 2.222h2.694c1.08 0 2.091.53 2.712 1.42 1.904 2.73 7.844 11.914 7.844 11.914s3.074 2.686 4.417 3.846C52.649 21.01 53 22.292 53 24.444V30c0 1.84-1.484 3.333-3.313 3.333h-3.312c0 3.68-2.968 6.667-6.625 6.667s-6.625-2.987-6.625-6.667h-13.25c0 3.68-2.968 6.667-6.625 6.667s-6.625-2.987-6.625-6.667H2.208A2.216 2.216 0 010 31.111V4.444c0-1.226.99-2.222 2.208-2.222h26.5V0h4.417v2.222zm-19.723 28.33a2.773 2.773 0 012.763 2.78 2.774 2.774 0 01-2.763 2.78 2.773 2.773 0 01-2.762-2.78 2.771 2.771 0 012.762-2.78zm26.5 0a2.773 2.773 0 012.763 2.78 2.774 2.774 0 01-2.763 2.78 2.772 2.772 0 01-2.762-2.78 2.771 2.771 0 012.762-2.78zM26.5 6.666H4.417v22.222h3.897a6.584 6.584 0 014.936-2.222c1.961 0 3.723.857 4.936 2.222h16.628a6.584 6.584 0 014.936-2.222c1.961 0 3.723.857 4.936 2.222h3.897v-4.445c0-1.09 0-1.09-.671-1.67L44.725 20H26.5V6.667zm-8.833 2.222v4.444h4.416v4.445h-4.416v4.444H13.25v-4.444H8.833v-4.445h4.417V8.89h4.417zM35.24 6.667h-4.324v8.889h10.182c-1.841-2.832-4.536-6.954-5.858-8.89z" fill="#E13856"/></svg>