<svg width="46" height="48" fill="none" xmlns="http://www.w3.org/2000/svg"><path fill-rule="evenodd" clip-rule="evenodd" d="M35.055.061c3.222 0 5.917 1.607 8.483 5.056 3.973 5.333 1.83 11.383.108 16.244l-.03.084c-.749 2.102-1.456 4.087-1.456 5.52 0 4.882-.56 20.81-7.774 20.81-5.17 0-6.397-5.426-7.382-9.786-1.138-4.991-1.96-7.073-4.106-7.073-2.487 0-3.54 3.216-4.756 7.758-1.145 4.316-2.439 9.193-6.646 9.193-6.147 0-7.787-13.132-7.787-20.892 0-1.512-.73-3.513-1.505-5.633-1.738-4.763-3.893-10.67-.098-16.186C4.52 1.64 7.151 0 10.39 0c2.062 0 4.122.683 6.114 1.345l.004.001c2.03.68 4.115 1.377 6.242 1.377 2.123 0 4.091-.645 6.174-1.327l.004-.002.064-.02.002-.001C30.947.729 32.97.06 35.055.06zm4.846 20.067l.027-.078c1.557-4.393 3.166-8.935.445-12.586-2.273-3.056-3.964-3.468-5.318-3.468-1.45 0-3.092.541-4.83 1.114l-.068.023c-2.18.714-4.653 1.524-7.408 1.524-2.772 0-5.276-.838-7.486-1.578h-.002c-1.774-.59-3.448-1.145-4.872-1.145-1.318 0-2.947.41-5.03 3.447-2.648 3.848-1.025 8.296.544 12.598.903 2.471 1.75 4.79 1.75 6.995 0 4.556.535 9.083 1.468 12.42 1.048 3.75 2.194 4.538 2.375 4.538 1.172 0 2.17-3.76 2.831-6.25v-.003c1.212-4.526 2.864-10.698 8.571-10.698 5.639 0 6.974 5.85 7.948 10.123 1.196 5.293 1.956 6.736 3.54 6.736.355 0 1.496-.818 2.491-4.553.852-3.198 1.34-7.69 1.34-12.322 0-2.112.818-4.407 1.684-6.837z" fill="#fff"/></svg>