<svg width="870" height="698" fill="none" xmlns="http://www.w3.org/2000/svg"><path opacity=".149" fill-rule="evenodd" clip-rule="evenodd" d="M80 107a4 4 0 11-8 0 4 4 0 018 0zm24 0a4 4 0 11-8 0 4 4 0 018 0zm20 4a4 4 0 100-8 4 4 0 000 8zm28-4a4 4 0 11-8 0 4 4 0 018 0zm20 4a4 4 0 100-8 4 4 0 000 8zm28-4a4 4 0 11-8 0 4 4 0 018 0zm20 4a4 4 0 100-8 4 4 0 000 8zm28-4a4 4 0 11-8 0 4 4 0 018 0zM76 135a4 4 0 100-8 4 4 0 000 8zm28-4a4 4 0 11-8 0 4 4 0 018 0zm20 4a4 4 0 100-8 4 4 0 000 8zm28-4a4 4 0 11-8 0 4 4 0 018 0zm20 4a4 4 0 100-8 4 4 0 000 8zm28-4a4 4 0 11-8 0 4 4 0 018 0zm20 4a4 4 0 100-8 4 4 0 000 8zm28-4a4 4 0 11-8 0 4 4 0 018 0zM76 159a4 4 0 100-8 4 4 0 000 8zm28-4a4 4 0 11-8 0 4 4 0 018 0zm20 4a4 4 0 100-8 4 4 0 000 8zm28-4a4 4 0 11-8 0 4 4 0 018 0zm20 4a4 4 0 100-8 4 4 0 000 8zm28-4a4 4 0 11-8 0 4 4 0 018 0zm20 4a4 4 0 100-8 4 4 0 000 8zm28-4a4 4 0 11-8 0 4 4 0 018 0zM76 183a4 4 0 100-8 4 4 0 000 8zm28-4a4 4 0 11-8 0 4 4 0 018 0zm20 4a4 4 0 100-8 4 4 0 000 8zm28-4a4 4 0 11-8 0 4 4 0 018 0zm20 4a4 4 0 100-8 4 4 0 000 8zm28-4a4 4 0 11-8 0 4 4 0 018 0zm20 4a4 4 0 100-8 4 4 0 000 8zm28-4a4 4 0 11-8 0 4 4 0 018 0zM76 207a4 4 0 100-8 4 4 0 000 8zm28-4a4 4 0 11-8 0 4 4 0 018 0zm20 4a4 4 0 100-8 4 4 0 000 8zm28-4a4 4 0 11-8 0 4 4 0 018 0zm20 4a4 4 0 100-8 4 4 0 000 8zm28-4a4 4 0 11-8 0 4 4 0 018 0zm20 4a4 4 0 100-8 4 4 0 000 8zm28-4a4 4 0 11-8 0 4 4 0 018 0zM76 231a4 4 0 100-8 4 4 0 000 8zm28-4a4 4 0 11-8 0 4 4 0 018 0zm20 4a4 4 0 100-8 4 4 0 000 8zm28-4a4 4 0 11-8 0 4 4 0 018 0zm20 4a4 4 0 100-8 4 4 0 000 8zm28-4a4 4 0 11-8 0 4 4 0 018 0zm20 4a4 4 0 100-8 4 4 0 000 8zm28-4a4 4 0 11-8 0 4 4 0 018 0zM76 255a4 4 0 100-8 4 4 0 000 8zm28-4a4 4 0 11-8 0 4 4 0 018 0zm20 4a4 4 0 100-8 4 4 0 000 8zm28-4a4 4 0 11-8 0 4 4 0 018 0zm20 4a4 4 0 100-8 4 4 0 000 8zm28-4a4 4 0 11-8 0 4 4 0 018 0zm20 4a4 4 0 100-8 4 4 0 000 8zm28-4a4 4 0 11-8 0 4 4 0 018 0zM76 279a4 4 0 100-8 4 4 0 000 8zm28-4a4 4 0 11-8 0 4 4 0 018 0zm20 4a4 4 0 100-8 4 4 0 000 8zm28-4a4 4 0 11-8 0 4 4 0 018 0zm20 4a4 4 0 100-8 4 4 0 000 8zm28-4a4 4 0 11-8 0 4 4 0 018 0zm20 4a4 4 0 100-8 4 4 0 000 8zm28-4a4 4 0 11-8 0 4 4 0 018 0zm387 184a4 4 0 11-8 0 4 4 0 018 0zm24 0a4 4 0 11-8 0 4 4 0 018 0zm20 4a4 4 0 100-8 4 4 0 000 8zm28-4a4 4 0 11-8 0 4 4 0 018 0zm20 4a4 4 0 100-8 4 4 0 000 8zm28-4a4 4 0 11-8 0 4 4 0 018 0zm20 4a4 4 0 100-8 4 4 0 000 8zm28-4a4 4 0 11-8 0 4 4 0 018 0zm-172 28a4 4 0 100-8 4 4 0 000 8zm28-4a4 4 0 11-8 0 4 4 0 018 0zm20 4a4 4 0 100-8 4 4 0 000 8zm28-4a4 4 0 11-8 0 4 4 0 018 0zm20 4a4 4 0 100-8 4 4 0 000 8zm28-4a4 4 0 11-8 0 4 4 0 018 0zm20 4a4 4 0 100-8 4 4 0 000 8zm28-4a4 4 0 11-8 0 4 4 0 018 0zm-172 28a4 4 0 100-8 4 4 0 000 8zm28-4a4 4 0 11-8 0 4 4 0 018 0zm20 4a4 4 0 100-8 4 4 0 000 8zm28-4a4 4 0 11-8 0 4 4 0 018 0zm20 4a4 4 0 100-8 4 4 0 000 8zm28-4a4 4 0 11-8 0 4 4 0 018 0zm20 4a4 4 0 100-8 4 4 0 000 8zm28-4a4 4 0 11-8 0 4 4 0 018 0zm-172 28a4 4 0 100-8 4 4 0 000 8zm28-4a4 4 0 11-8 0 4 4 0 018 0zm20 4a4 4 0 100-8 4 4 0 000 8zm28-4a4 4 0 11-8 0 4 4 0 018 0zm20 4a4 4 0 100-8 4 4 0 000 8zm28-4a4 4 0 11-8 0 4 4 0 018 0zm20 4a4 4 0 100-8 4 4 0 000 8zm28-4a4 4 0 11-8 0 4 4 0 018 0zm-172 28a4 4 0 100-8 4 4 0 000 8zm28-4a4 4 0 11-8 0 4 4 0 018 0zm20 4a4 4 0 100-8 4 4 0 000 8zm28-4a4 4 0 11-8 0 4 4 0 018 0zm20 4a4 4 0 100-8 4 4 0 000 8zm28-4a4 4 0 11-8 0 4 4 0 018 0zm20 4a4 4 0 100-8 4 4 0 000 8zm28-4a4 4 0 11-8 0 4 4 0 018 0zm-172 28a4 4 0 100-8 4 4 0 000 8zm28-4a4 4 0 11-8 0 4 4 0 018 0zm20 4a4 4 0 100-8 4 4 0 000 8zm28-4a4 4 0 11-8 0 4 4 0 018 0zm20 4a4 4 0 100-8 4 4 0 000 8zm28-4a4 4 0 11-8 0 4 4 0 018 0zm20 4a4 4 0 100-8 4 4 0 000 8zm28-4a4 4 0 11-8 0 4 4 0 018 0zm-172 28a4 4 0 100-8 4 4 0 000 8zm28-4a4 4 0 11-8 0 4 4 0 018 0zm20 4a4 4 0 100-8 4 4 0 000 8zm28-4a4 4 0 11-8 0 4 4 0 018 0zm20 4a4 4 0 100-8 4 4 0 000 8zm28-4a4 4 0 11-8 0 4 4 0 018 0zm20 4a4 4 0 100-8 4 4 0 000 8zm28-4a4 4 0 11-8 0 4 4 0 018 0zm-172 28a4 4 0 100-8 4 4 0 000 8zm28-4a4 4 0 11-8 0 4 4 0 018 0zm20 4a4 4 0 100-8 4 4 0 000 8zm28-4a4 4 0 11-8 0 4 4 0 018 0zm20 4a4 4 0 100-8 4 4 0 000 8zm28-4a4 4 0 11-8 0 4 4 0 018 0zm20 4a4 4 0 100-8 4 4 0 000 8zm28-4a4 4 0 11-8 0 4 4 0 018 0z" fill="#000"/><rect x="165" y="171" width="570" height="368" rx="16" fill="#F8E71C"/><g filter="url(#filter0_d)"><mask id="a" maskUnits="userSpaceOnUse" x="155" y="10" width="570" height="524"><rect x="155" y="10" width="570" height="524" rx="16" fill="#fff"/></mask><g mask="url(#a)"><path fill-rule="evenodd" clip-rule="evenodd" d="M630.096 491.632c11.04 43.064-2.208 151.28-2.208 151.28l-91.656 3.328 20.976-173.392 72.888 18.784z" fill="#5F46EE"/><path fill-rule="evenodd" clip-rule="evenodd" d="M611.392 267.944c-3.144-.2-6.992-5.624-14.424-14.84-4.424-17.632 7.568-23.448 19.872-30.376 0 0-47.904-66.992-48.032-44.72-.328 60.52-32.48 73.952-33.36 73.456-3.888 3.24 65.456 64.264 60.416 69.384-8.304 15.312 15.264-50.864 15.528-52.904z" fill="#E28B7C"/><path fill-rule="evenodd" clip-rule="evenodd" d="M550.04 246.472c8.28 14.904 38.464 44.728 45.824 49.152 0 0 10.36-22.824 8.288-33.136-.352-1.68 11.192 9.384 13.8 9.384 2.616 0 13.944 217.408 11.04 231.904-.928 4.592-84.48 9.936-87.24 7.184-7.832-7.832-21.952-251.408-21.952-251.408l30.24-13.08z" fill="#73ADE9"/><path fill-rule="evenodd" clip-rule="evenodd" d="M633.272 226.008c.912-2.056-1.072-4.136.744-14.824 1.336-2.704 2.24-4.72 2.584-5.536 12.48-28.472 7.864-51.84-14.792-61.728-22.64-9.944-44.488-6.696-57 21.8-12.464 28.448-1.816 51.064 8.4 63.768 3.408 4.232 23.12 18.856 29.088 18.04 7.976-1.088 15.744-9.824 21.912-19.088 2.568.368 7.368 1.368 9.064-2.432z" fill="#E79A8D"/><path fill-rule="evenodd" clip-rule="evenodd" d="M643.632 175.464c-.824-.016-1.896 1.472-5.264.552l-.016-1.384c-3.984-.64-7.56-.176-14.936 2.28-1.192.392-2.896-1.648-4.152-1.096-3.848 1.68-9.904 7.368-14.368 9.28-1.232.792-1.384 2.264-2.688 3.192-1.296.92-4.24.048-5.6 1.12-2.264 1.784-4.904 2.392-7.376 4.64-1.936 1.88-5.032.272-5.184-3.656 0 0-3.064-6.176-7.552-1.416-6.808 7.232-1.776 18.056-1.776 18.056l-13.688 10.704s-30.92-37.024-4.528-70.184c24.896-31.288 58.56-14.768 81.92 3.28 10.496 8.112 5.208 24.632 5.208 24.632z" fill="#5E1C17"/><path fill-rule="evenodd" clip-rule="evenodd" d="M632.504 174.704c-13.032-5.696-13.656-19.936-22.928-31.048-9.272-11.104-28-14.688-32.936-11.76 7.504.088 23.736-1.384 30.056 18 6.312 19.392 8.472 25.368 15.624 27.152 7.16 1.76 10.184-2.344 10.184-2.344z" fill="#873F26"/><path fill-rule="evenodd" clip-rule="evenodd" d="M630.568 175.128c-6.968-10.008-2.512-15.752-13.896-28.088s-28.6-14.856-28.6-14.856 21.2 1.824 33.008 15.072c11.808 13.232 18.656 29.688 14.856 29.832-3.808.144-5.368-1.96-5.368-1.96z" fill="#873F26"/><path fill-rule="evenodd" clip-rule="evenodd" d="M586.864 130.728c1.968-.048 30.792 4.136 45.568 25.24 10 14.28 3.144 18.272 4.336 19.864 1.192 1.6 3.032-.272 3.224-1.376.184-1.096 5.456-10.896-10.864-26.28-18.832-17.744-44.072-17.368-42.264-17.448zm21.952 52.128c-8.168-1.872-8.584-10.856-15.064-26.152-6.48-15.296-12.112-12.624-12.112-12.624s8.496.936 7.992 9.584c-.504 8.672 11.88 30.76 15.264 31.432 3.392.696 3.92-2.24 3.92-2.24z" fill="#873F26"/><path fill-rule="evenodd" clip-rule="evenodd" d="M604.896 185.096c-2.664 1.648-4.632 7.168-9.664-3.456-5.04-10.616-8.424-25.864-10.224-28.056-1.84-2.216-.168.464 1.664 8.384 1.848 7.928 5.136 27.8 9.456 28.824 4.296 1.024 8.768-5.696 8.768-5.696z" fill="#873F26"/><path fill-rule="evenodd" clip-rule="evenodd" d="M558.072 148.832c-10.712-9.272-26.368-4.736-30.08 16.536-3.072 17.784 19.408 37.312 29.176 25.208 9.776-12.08.904-41.744.904-41.744z" fill="#5E1C17"/><path fill-rule="evenodd" clip-rule="evenodd" d="M542.848 245.368s6.784 12.384 20.616 33.512c12.52 19.128 24.848 56.304 28.544 63.672 3.672 7.36 3.856 75.832 3.856 92.76 0 16.928 1.472 229.32 1.472 229.32L489.848 655.8s6.624-116.312 8.84-161.952c2.2-45.648 16.192-93.504 16.192-104.552 0-11.032-3.688-42.696-5.16-69.2-1.464-26.504-9.2-58.344-9.2-58.344s38.728-15.512 42.328-16.384zm55.952 9.952c11.616 5.464 11.04 7.72 21.36 14.344 6.992 4.512 22 61.088 30.368 82.824 7.368 19.144-10.688 9.752-12.152 17.112-1.472 7.368-7.544 35.52-1.656 72.344 5.896 36.808 7.736 213.12 7.736 213.12l-26.136 5.52s-1.112-141.728-2.584-162.328c-1.48-20.616-.728-139.504-2.2-149.816-1.48-10.304-.576-56.752-3.872-66.624-3.32-9.944-10.864-26.496-10.864-26.496z" fill="#fff"/><path fill-rule="evenodd" clip-rule="evenodd" d="M507.512 320.096c1.472 26.504 5.16 58.168 5.16 69.2 0 11.048-13.984 58.904-16.2 104.552-2.2 45.64-8.832 161.952-8.832 161.952l38.864 3.2c3.104-69.456 4.184-147.256 25.184-258.48 7.368-39.016-21.96-117.008-39.016-132.696-2.744 1.104-14.36-6.072-14.36-6.072s7.744 31.84 9.2 58.344z" fill="#E4E8EF"/><path fill-rule="evenodd" clip-rule="evenodd" d="M540.92 244.688c0 2.016-6.072 5.648-1.384 23.04 3.92 14.496 16.752 65.064 18.224 68.744 1.48 3.68-4.552 2.08-4.552 2.08s-17.808-62.584-19.184-68.888c-4.416-20.152.432-22.096 1.52-23.464 2.424-3.088 5.376-1.512 5.376-1.512z" fill="#000"/><path fill-rule="evenodd" clip-rule="evenodd" d="M569.928 344.768c.848 6.96-3.832 13.264-10.424 14.072-6.6.8-12.664-4.192-13.52-11.152-.856-6.96 3.824-13.256 10.432-14.064 6.608-.808 12.648 4.184 13.512 11.144z" fill="#232121"/><path fill-rule="evenodd" clip-rule="evenodd" d="M569.272 345.088c.744 6.152-3.088 11.664-8.568 12.336-5.48.68-10.536-3.768-11.272-9.904-.768-6.144 3.08-11.68 8.552-12.344 5.496-.672 10.544 3.768 11.288 9.912z" fill="#B4B9C1"/><path fill-rule="evenodd" clip-rule="evenodd" d="M564.928 345.368c.424 3.352-1.824 6.36-4.984 6.752-3.184.368-6.08-2-6.488-5.344-.408-3.312 1.84-6.336 5.008-6.72 3.16-.384 6.064 2.008 6.464 5.312z" fill="#000"/><path fill-rule="evenodd" clip-rule="evenodd" d="M564.2 345.04c.264 2.232-.96 4.232-2.76 4.44-1.792.232-3.488-1.392-3.76-3.64-.272-2.224.968-4.2 2.768-4.44 1.792-.224 3.472 1.416 3.752 3.64z" fill="#B4B9C1"/><path fill-rule="evenodd" clip-rule="evenodd" d="M627.48 351.304c-6.264-8.976-13.232-31.664-14.088-34.104l.616-1.256 1.248.608c.824 2.464 7.912 25.184 13.848 33.64 2.376 3.384 5.392 4.608 8.216 4.616 3.904.016 7.264-2.544 7.504-4.912v.016l1.088-.856.84 1.104c-.568 3.808-4.784 6.576-9.432 6.616-3.408 0-7.12-1.584-9.84-5.472z" fill="#959BA5"/><path fill-rule="evenodd" clip-rule="evenodd" d="M648.36 350.216c-1.944 3.088-2.672 3.096-3.592 2.696-.904-.392-1.304-1.688-.92-4.72.408-3.184 2.168-3.616 3.768-2.936.912.376 3.04 1.344.744 4.96z" fill="#232121"/><path fill-rule="evenodd" clip-rule="evenodd" d="M624.592 359.248c-3.416-.016-6.616-1.368-7.896-3.952l.472-1.296 1.296.448c.696 1.56 3.208 2.864 6.128 2.848 3.824-.04 8.04-2.032 9.728-7.464 1.864-6.208 2.24-18.168 2.224-26.936 0-4.8-.096-8.64-.096-10.168l.032-.584 1.128-.8.8 1.136v.248c0 1.456.096 5.352.096 10.168 0 8.848-.312 20.792-2.304 27.504-1.904 6.288-7.08 8.848-11.568 8.848h-.04z" fill="#959BA5"/><path fill-rule="evenodd" clip-rule="evenodd" d="M615.232 355.96c2.776 2.2 3.424 1.96 4.2 1.272.744-.72.744-2.064-.536-4.784-1.36-2.864-3.104-2.656-4.432-1.464-.768.72-2.48 2.384.768 4.976z" fill="#232121"/><path fill-rule="evenodd" clip-rule="evenodd" d="M616.032 323.536l.744-.824c1.296-.224 2.056.184 2.216-2.624l-.104-1.576-.072-.984c.016-4.408 3.904-7.192 7.584-7.208l1.184.128c4.024.632 6.072 2.712 6.784 6.528.472 2.072 1.608 2.152 2.488 2.224l.648-.056.92.624-.616.92-.952.08c-1.184.08-3.488-.616-4.024-3.464-.808-3.472-1.864-4.568-5.552-5.32l-.88-.096c-2.944 0-6.008 2.272-6.032 5.64l.072.784.128 1.776c.144 3.52-2.4 4.192-3.728 4.192l.016.024-.824-.768z" fill="#959BA5"/><path fill-rule="evenodd" clip-rule="evenodd" d="M612.688 317.624c-.472-1.336-.688-2.768-.688-4.192.056-7.016 4.952-14.656 12.544-14.84l.312.016c6.432-.016 13.912 4.608 14.176 16.608.032 1.08-.808 2-1.896 2.024a1.953 1.953 0 01-2.024-1.888c-.6-10.432-5.424-12.464-10.616-12.84-4.4.064-8.552 5.616-8.568 10.92 0 1.016.16 2.008.472 2.92v.016a1.975 1.975 0 01-1.216 2.496l-.624.096c-.824 0-1.6-.512-1.872-1.336z" fill="#000"/><path fill-rule="evenodd" clip-rule="evenodd" d="M615.008 265.984c2.136 3.36 12.096 24.608 12.096 33.784-1.232 1.832-4.184 1.552-4.184 1.552s-3.272-23.648-11.224-32.208c-5.92-6.376 3.312-3.128 3.312-3.128z" fill="#000"/><path fill-rule="evenodd" clip-rule="evenodd" d="M552.792 235.424l-13.8 11.6-7.184 22.64 27.24 12.528-6.256 11.768s38.096 52.448 41.408 60.176c3.32 7.736-7.168-37.536-17.12-54.096-9.928-16.568-19.224-41.248-22.808-50.624-3.592-9.376-1.48-13.992-1.48-13.992zm60.744 118.712l9.568-68.64-9.208-8.832 6.264-7-16.192-12.144-8.84-7.36s6.808 11.776 10.68 21.712c3.856 9.944 7.728 82.264 7.728 82.264z" fill="#E4E8EF"/><path fill-rule="evenodd" clip-rule="evenodd" d="M598.96 384.888c3.728.496 13.84-1.224 14.784.48.952 1.704-5.376 6.792-8.712 6.432-3.344-.384-6.592-3.048-6.592-3.048l.52-3.864z" fill="#FFDDD2"/><path fill-rule="evenodd" clip-rule="evenodd" d="M582.256 430.168l59.624-88.728 57.048 5.16-55.032 85.408-61.64-1.84z" fill="#5F46EE"/><path fill-rule="evenodd" clip-rule="evenodd" d="M586.096 387.624c7.36-2.232 11.656-2.936 14.448-2.616 2.8.32 7.64 5.296 3.624 4.152 0 0-2.36-.184.208 1.008 2.536 1.216 10.096 0 12.696-.704 2.616-.712 10.208-2.576 11.824-2.376 2.464.336-.728 1.44-3.264 3.6-2.544 2.168-6.608 2.936-8.768 3.76-2.152.84 12.296-5.792 15.008-5.216 2.032.432.352 2.712-2.512 4.312-2.856 1.592-14.648 5.104-14.648 5.104s17.4-5.392 17.344-3.48c-.064 1.904-5.144 4.544-9.464 6.208-4.328 1.648-10.488 1.344-10.488 1.344s16.648-4.416 16.472-2.04c-.2 2.336-9.888 6.8-15.568 9.024-3.368 1.328-25.064-.632-28.648-1.64-3.552-1.016-19.408-5.288-19.408-5.288l1.496-15.44 19.648.288z" fill="#E6998C"/><path fill-rule="evenodd" clip-rule="evenodd" d="M571.12 383.024l10.68 2.416-5.464 36.264-16.744-5.816 11.528-32.864z" fill="#B6EEFF"/><path fill-rule="evenodd" clip-rule="evenodd" d="M505.696 262.28c-12.584-2.192-15.656 20.48-13.584 36.144 2.088 15.664-3.512 68.4 8.8 79.24 18.568 16.32 60.16 56 63.48 41.64l12.144-37s-48.744-21.776-49.208-25.92c-.984-8.872-3.608-65.432-6.376-76.536-3.72-15.096-15.256-17.568-15.256-17.568z" fill="#fff"/><path fill-rule="evenodd" clip-rule="evenodd" d="M483.224 298.928c2.08 15.656-4.904 77.44 7.416 88.264 18.56 16.312 59.4 41.128 70.984 45.544 0 0 9.056-26.688 8.288-26.704-16.504-.36-58.808-21.52-65.712-33.112-6.904-11.576-9.928-86.688-3.68-111.168-9.944-4.424-19.376 21.512-17.296 37.176z" fill="#E4E8EF"/><path fill-rule="evenodd" clip-rule="evenodd" d="M679.136 385.872c2.312 2.456-1.568 4.632-1.568 4.632s-10.584-1.408-11.504-3.048c-.92-1.616 1.752-1.912 4.392-1.872 3.896.056 8.68.288 8.68.288z" fill="#EAB6AC"/><path fill-rule="evenodd" clip-rule="evenodd" d="M676.712 389.84c.4 1.168-.728 4.536-2.68 4.392-1.976-.16-7.936-.96-7.368-2.648.568-1.696.016-1.768 3.672-1.944 3.672-.16 6.376.2 6.376.2zm4.912-16.416c1.208.832 1.12 6.336-.752 6.712-1.88.392-11.872-.216-12.128-.832-.256-.6.136-2.792 2.168-3.184 2.032-.384 4.184-.92 6.376-1.208 2.184-.28 4.336-1.488 4.336-1.488z" fill="#EAB6AC"/><path fill-rule="evenodd" clip-rule="evenodd" d="M680.872 380.136c2.256 1.68 2.904 3.536.68 5.456-2.216 1.912-15.12-.48-15.64-2.968-.52-2.48 2.784-2.392 4.608-2.536 1.84-.104 10.352.048 10.352.048z" fill="#EAB6AC"/><path fill-rule="evenodd" clip-rule="evenodd" d="M295.128 437.184c2.216 11.056 11.048 83.928 6.632 103.808-4.416 19.88 0 68.472 4.416 101.592 4.408 33.128 13.256 163.448 8.832 185.528-33.128 0-45.48 2.768-45.48 2.768s-6.048-126.08-10.472-146.696c-7.128-33.288-14.344-70.304-20.976-132.144-6.632-61.848-1.848-103.432-1.848-103.432l58.896-11.424z" fill="#00404F"/><path fill-rule="evenodd" clip-rule="evenodd" d="M319.432 465.528c2.2 11.048 10.304 61.84 5.888 81.72-4.416 19.872-1.832 105.536 7.352 137.68 7.368 25.752 14.736 133.248 10.312 155.336-33.128 0-55.208 1.472-55.208 1.472s-.544-135.448-14.728-166.392c-14.192-30.952-16.928-58.88-23.552-120.736-6.632-61.832-5.896-89.816-5.896-89.816l75.832.736z" fill="#298AEE"/><path fill-rule="evenodd" clip-rule="evenodd" d="M316.208 169.664c15.184-2.472 44.168 53.016 40.864 90.288-3.048 34.264-1.376 54.344 4.36 58.192-8.64 1.68-18.232 3.544-23.088-21.432-4.856-24.96-16.288-37.048-15.232-57.2 1.08-20.12-9.248-62.328-9.248-62.328l2.344-7.52z" fill="#333"/><path fill-rule="evenodd" clip-rule="evenodd" d="M324.216 255.8c-3.368-11.36-21.248-20.704-25.952-75.912-1.84-21.736-42.744 29.232-42.744 29.232 11.488 7.728 18.904 32.416 9.336 53.04-14.528 30.592-21.544 44.488-19.6 43.712-8.432 18.032 82.496-46.608 78.96-50.072z" fill="#DC8B7E"/><path fill-rule="evenodd" clip-rule="evenodd" d="M256.736 188.256h-.024v-.008l.024.008z" fill="#000"/><path fill-rule="evenodd" clip-rule="evenodd" d="M296.048 257.744c-6.016 3.416-45.272 23.736-45.272 23.736-6.608 12.064-9.8 13.312-19.592 31.48-4.528 8.352-2.056 25.192 4.288 30.08 4.336 3.328-2.592 32.176-3.416 38.144-5.864 42.552-8.336 158.704-8.336 158.704s114.848 3.296 114.848-4.416c0-57.424-23.84-164.064-14.072-220.304 3.008-17.304 14.264-30.248 8.56-48.408-3.416-6.248-8.864-13.416-15.464-23.648-1.384 2.752-5.528 5.52-21.544 14.632z" fill="#fff"/><path fill-rule="evenodd" clip-rule="evenodd" d="M319.792 245.032s-5.6 7.208-12.616 11.544c-7 4.32-50.12 26.944-50.12 26.944l-8.408.536-2.568 4.872 11.504-2.992s47.496-24.224 51.272-27.568c3.768-3.352 10.936-13.336 10.936-13.336z" fill="#B6EEFF"/><path fill-rule="evenodd" clip-rule="evenodd" d="M252.6 439.224c11.288 1.384 45.12 1.728 48.344.696 3.24-1.04 7.264 46.136 3.632 47.872-6.312 3.016-58.024 5.2-58.024-3.128s6.048-45.44 6.048-45.44z" fill="#E4E8EF"/><path fill-rule="evenodd" clip-rule="evenodd" d="M252.808 440.488c10.304 1.272 41.216 1.584 44.176.632 2.952-.96 6.632 42.144 3.312 43.736-5.776 2.752-53.008 4.744-53.008-2.856 0-7.616 5.52-41.512 5.52-41.512z" fill="#fff"/><path fill-rule="evenodd" clip-rule="evenodd" d="M261.976 438.184L222.528 331.96l69.72-25.888 39.448 106.224-69.72 25.888z" fill="#5F46EE"/><mask id="b" maskUnits="userSpaceOnUse" x="322" y="342" width="12" height="61"><path fill-rule="evenodd" clip-rule="evenodd" d="M327.976 402.28l-3.456-9.304c-1.608-17.872-2.6-35.064-2.328-50.456l11.408 53.8-5.624 5.96z" fill="#fff"/></mask><g mask="url(#b)"><path fill-rule="evenodd" clip-rule="evenodd" d="M327.976 402.28l-3.456-9.304c-1.608-17.872-2.6-35.064-2.328-50.456l11.408 53.8-5.624 5.96z" fill="url(#paint0_linear)"/></g><mask id="c" maskUnits="userSpaceOnUse" x="263" y="270" width="62" height="123"><path fill-rule="evenodd" clip-rule="evenodd" d="M324.52 392.976l-32.272-86.904-28.288 10.504 43.008-45.808 15.224 71.752c-.272 15.392.72 32.584 2.328 50.456z" fill="#fff"/></mask><g mask="url(#c)"><path opacity=".145" fill-rule="evenodd" clip-rule="evenodd" d="M324.52 392.976l-32.272-86.904-28.288 10.504 43.008-45.808 15.224 71.752c-.272 15.392.72 32.584 2.328 50.456z" fill="url(#paint1_linear)"/></g><mask id="d" maskUnits="userSpaceOnUse" x="232" y="306" width="96" height="133"><path fill-rule="evenodd" clip-rule="evenodd" d="M261.976 438.184l-29.296-78.896c.592-6.304.984-10.44.984-10.44l30.296-32.272 28.288-10.504 35.728 96.208-16.552 17.544-49.448 18.36z" fill="#fff"/></mask><g mask="url(#d)"><path opacity=".399" fill-rule="evenodd" clip-rule="evenodd" d="M261.976 438.184l-29.296-78.896c.592-6.304.984-10.44.984-10.44l30.296-32.272 28.288-10.504 35.728 96.208-16.552 17.544-49.448 18.36z" fill="url(#paint2_linear)"/></g><path fill-rule="evenodd" clip-rule="evenodd" d="M310.368 318.48c-3.328 2.88 3.28 45.024 3.912 54.28.256 3.44-15.256-.88-34.616 6.896-3.144-.016-5.872-.32-6.616-1.184-3.28-3.784-6.232-5.216-9.624-6.872-7.856-3.808-10.568-7.712-11.528-7.48-3.312.776 2.56 8.824 2.56 8.824s-7.224-.744-10.304-.36c-3.736.44-6.232 1.496-7.728 2.568-2.096 1.496-2.92 4.424.248 3.328 3.16-1.096 5.456-1.304 6.744-.928l5.976.624s-5.776-.424-8.912.664c-3.184 1.08-5.52 3.504-5.52 3.504s-1.192 3.352 2.2 2.384c2.584-.736 3.864-1.088 3.864-1.088l7.744 1.272s-13.232-.072-12.528 2.952c.32 1.456-.48 2.64 5.712 2.208 6.184-.432 9.448 1.352 9.448 1.352s-10.528-1.496-13.312-.616c-2.136.672-1.984 2.8 2.392 3.136 4.384.304 15.128 6.168 23.2 4.104 3.536-.896 7.064-1.6 10.84-2.192l.056.12c30.496 9.528 56.968 9.272 64.736 2.56 7.784-6.72 8.704-79.056-3.68-99.392-3.904-6.376-21.944 16.464-25.264 19.336z" fill="#E79A8D"/><path fill-rule="evenodd" clip-rule="evenodd" d="M319.808 259.392c25.4-4.048 32.336 76.368 29.064 97.912-24.048-5.336-43.792-.728-43.792-.728s-5.928-55.888-4.784-66.256c1.72-15.904 6.456-28.848 19.512-30.928z" fill="#fff"/><path fill-rule="evenodd" clip-rule="evenodd" d="M229.048 212.624c-.536-2.136 1.736-3.784 1.752-14.424-.808-2.824-1.336-4.936-1.552-5.784-7.248-29.568 1.16-51.352 24.688-57.088 23.512-5.776 44.064 1.032 51.344 30.648 7.224 29.552-6.864 49.584-18.848 60.128-3.992 3.52-25.496 14.32-31.104 12.52-7.528-2.4-13.56-12.152-17.968-22.112-2.504-.08-7.328.08-8.312-3.888z" fill="#E6998C"/><path fill-rule="evenodd" clip-rule="evenodd" d="M310.176 146.216c-15.336-25.384-51.512-20.672-74.744-3.064-5.232 3.984-7.16 8.768-7.824 12.544-10.672 11.936-.12 14.096 6.984 14.88 7.208.76 20.448 2.912 20.888 14.192 2.352-1.024 4.12-5.056 3.544-9.984 4.504 3.528 11.856 8.168 13.488 10.272 1.544 2.152 3.096-8.664 8.192-4.816 6.976 5.232 4.96 17.992 4.96 17.992l14.448 13.368s31.544-29.864 10.064-65.384z" fill="#333"/><g filter="url(#filter1_d)"><path fill-rule="evenodd" clip-rule="evenodd" d="M317.28 427.224c.032 7.448-4.128 25.56-4.752 30.712-.64 5.144 2.256 15.08 2.824 17.944 1.456 7.208 7.168 15.576 8.952 14.344.984-.632-2.128-8.632-2.768-11.816-.672-3.232-2.04-11.928-2.04-11.928s1.512 11.568 4.112 16.44c2.504 4.688 6.912 11.024 7.848 9.04.92-2.04-.856-5.232-2.136-7.496-1.28-2.216-4.512-18.064-4.512-18.064s5.616 18.512 7.2 20.776c1.736 2.48 3.768.952 3.192-1.112-.568-2.04-3.752-14.84-3.896-17.12-.12-2.328 2.256 13.816 4.776 13.208 1.208-.296 2.112-3.768.504-10.248-1.664-6.504.448-13.456 2-19.128 1.528-5.616 1.104-22.848-.416-27.064-1.504-4.208-5.792-14.84-5.792-14.84l-17.008 2.552s1.928 9.6 1.912 13.8z" fill="#E79A8D"/><path fill-rule="evenodd" clip-rule="evenodd" d="M333.2 432.832c.368 5.52-.736 11.04-3.32 16.184-2.576 5.16-5.52 18.408-8.096 19.52-2.576 1.104-3.296-10.312-4.056-15.456-.736-5.16-3.296-13.264 1.48-22.456 4.792-9.208 13.992 2.208 13.992 2.208z" fill="#FFDDD2"/><path fill-rule="evenodd" clip-rule="evenodd" d="M341.152 195.792c-15.688 17.64-18.104 104.328-18.632 133.96-.04 2.472-6.616 41.24-13.256 111.904 6.816-.184 32.4 5.16 36.808 6.632 1.48-18.4 10.328-112.648 10.328-112.648 1.392-5.136 11.536-78.008 6.608-92.76-4.912-14.744-21.856-47.088-21.856-47.088z" fill="#fff"/><path fill-rule="evenodd" clip-rule="evenodd" d="M356.304 335.544c.696-2.544 3.52-21.704 5.608-42.168-2.304-19.472-5.608-49.12-5.608-49.12-1.48 11.048-9.584 90.56-11.776 104.544-1.976 12.448-12.68 77.912-14.48 95.76 7.208 1.416 13.888 2.928 15.936 3.624 1.472-18.408 10.32-112.64 10.32-112.64zm172.36 211.032c-8.824 12.152-73.248 7.36-89.816 9.568-16.56 2.2-58.16-29.096-58.16-29.096l77.296-192.136L504 358.464s10.304 91.288 12.504 114.472c2.216 23.2 12.16 73.64 12.16 73.64z" fill="#E4E8EF"/><path fill-rule="evenodd" clip-rule="evenodd" d="M489.064 369.24c9.352 24.472 14.008 30.088 14.008 70.896 0 40.816-11.04 130.704-13.84 161.304-.824 9.08-9.352 181.424-9.352 193.672 0 12.232-44.912 4.192-52.376-1.928-7.496-6.128-4.68-155.92-4.68-176.328 0-20.4.824-112.952.824-129.272 0-16.328 5.608-114.272 5.608-114.272l59.808-4.072z" fill="#000"/><path fill-rule="evenodd" clip-rule="evenodd" d="M473.32 373.08c2.816 13.496 4.68 166.696.952 218.728l-9.376 207.16s16.848 0 14.984-3.856c-1.88-3.856 6.536-175.36 9.352-193.672 2.816-18.304 18.704-161.888 14.032-177.28-4.672-15.424-11.216-59.736-11.216-59.736l-18.728 8.656z" fill="#212121"/><path fill-rule="evenodd" clip-rule="evenodd" d="M378.592 366.888c-14.024 23.12-29.696 203.728-32.504 223.944-2.792 20.24-22.448 193.664-22.448 202.352 16.84 20.232 42.096 20.232 50.52 14.456-8.816 6.04 44.36-217.056 42.104-205.224l28.056-158.992 9.184-80.616-74.912 4.08z" fill="#000"/><path fill-rule="evenodd" clip-rule="evenodd" d="M409.64 131.312l-2.504 33.744-14.6 13.504s49.48 45.704 49.16 35.424c-.312-10.312.56-81.72.56-81.72l-32.616-.952z" fill="#EAB6AC"/><path fill-rule="evenodd" clip-rule="evenodd" d="M479.152 186c-.136-4.472-20.424-7.064-21.168-20.6-3.32-16.016-5.296-26.296-5.512-31.48l-16.936 3.48-8.2 112.92c14.824 4.912 52.152-54.12 51.816-64.32z" fill="#DF8E80"/><mask id="e" maskUnits="userSpaceOnUse" x="407" y="131" width="36" height="58"><path fill-rule="evenodd" clip-rule="evenodd" d="M430.136 188.472l-.12-3.744c-7.432-.776-19.592-13.728-22.872-19.72l2.496-33.696 32.616.952s-.016 1.368-.048 3.76l-6.672 1.376-3.416 47.056-1.984 4.016z" fill="#fff"/></mask><g mask="url(#e)"><path fill-rule="evenodd" clip-rule="evenodd" d="M430.136 188.472l-.12-3.744c-7.432-.776-19.592-13.728-22.872-19.72l2.496-33.696 32.616.952s-.016 1.368-.048 3.76l-6.672 1.376-3.416 47.056-1.984 4.016z" fill="#B65B4B"/></g><path fill-rule="evenodd" clip-rule="evenodd" d="M460.736 166.768c-2.584 3.28-23.08 20.864-30.888 20.048-7.8-.84.44 14.296.44 14.296l2.232 174.008 54.832-4.672 5.384-169.336-32-34.344z" fill="#B6DCFF"/><path fill-rule="evenodd" clip-rule="evenodd" d="M406.752 164.248c2.576 5.568 15.496 19.664 23.264 20.48l5.88 189.928-52.136 5.144 1.632-196.232s19.24-17.008 21.36-19.32z" fill="#78C3FF"/><path fill-rule="evenodd" clip-rule="evenodd" d="M425.136 196.872h5.712v-14.904h-11.304l-.088 6.44 5.68 8.464z" fill="#002A68"/><path fill-rule="evenodd" clip-rule="evenodd" d="M424.416 194.592l-5.704 144.392 16.16 11.936-3.752-156.256-6.704-.072z" fill="#412AC2"/><path fill-rule="evenodd" clip-rule="evenodd" d="M435.168 196.872h-4.736v-14.904H442l-.08 6.44-6.752 8.464z" fill="#02499E"/><path fill-rule="evenodd" clip-rule="evenodd" d="M436 194.592l13.944 142.648-15.072 13.68-4.424-156.328H436z" fill="#5F46EE"/><path fill-rule="evenodd" clip-rule="evenodd" d="M424.2 196.72h11.904v-1.08h-11.768l-.136 1.08z" fill="#02499E"/><path fill-rule="evenodd" clip-rule="evenodd" d="M408.672 564.616s-74.368.92-74.368-2.224c0-44.16 25.84-210.744 26.4-230.92.448-15.64 1.416-53.592-.824-60.288-2.248-6.728-9-49.656-9-49.656s-18.232.04-15.144-14.904c1.328-6.544 5.368-14.904 11.696-16.128 18.008-3.528 16.136-2.464 47.92-15.904 0 0 1.608 15.112 7.048 25.96 5.496 11.032 10.24 85.592 14 96.808 3.976 11.592-7.728 267.256-7.728 267.256zm101.224-2.584l-.752-140.632-2.568-20.24-11.408-14.728-36.08-86.12s5.36-18.24 7-86.888l2.808-38.264c27.92 13.448 27.208 13.376 45.6 19.64 5.952 2.024 2.984 19.064 2.984 19.064s-9.184 49.336-11.4 56.024c-2.24 6.712-2.304 40.496-1.88 56.12.272 9.208 25.208 190.648 25.208 222.4l-19.512 13.624z" fill="#fff"/><path fill-rule="evenodd" clip-rule="evenodd" d="M391.296 391.128l-36.304 12.12-.736 19.144 36.28-8.328.76-22.936z" fill="#E4E8EF"/><path fill-rule="evenodd" clip-rule="evenodd" d="M455.496 102.808c-3.752-20.264-12.368-38.272-41.44-33.224-36.32 6.288-29.36 28-25.584 52.864 3.76 24.832 23.544 49.032 42.104 46.208 14.136-2.16 23.44-19.352 25.384-38.4 3.504-2.72 5.568-8.336 4.888-14.584-.888-8.152.048-13.136-5.352-12.864z" fill="#E79A8D"/><path fill-rule="evenodd" clip-rule="evenodd" d="M402.552 72.408c-19.656 7.272-18.712 22.208-15.928 39.808l-.568 3.328c-5.64 1.312-2.944 3.304-1.04 11.464 1.624 7.104 7.24 13.776 9.128 14.024 7.76 16.16 21.32 28.52 34.52 27.616-8.984-13.104-17.344-34.808-22.2-60.16-2.44-12.816-3.688-25.064-3.912-36.08z" fill="#B65B4B"/><path fill-rule="evenodd" clip-rule="evenodd" d="M403.696 67s-9.224-.544-17.64 7.864c-6.128 6.128-9.168 14.856-7.648 22 .096 2.176.288 4.6.632 7.216 1.376 10.8 4.136 13.136 4.136 13.136l4.512.336s-5.256-14.192 2.272-23.36c7.528-9.152 25.8-8.144 25.8-8.144L403.696 67z" fill="#000"/><path fill-rule="evenodd" clip-rule="evenodd" d="M452.288 76.336c-4.248-5.6-7.912-9.88-14.688-11.504-7.6-9.496-42.232-1.232-45.264 6.536-4.36 6.888-5.872 18.92 1.048 21.936 16.816 7.32 29.008-2.4 37.704-3.792 6.824 1.272 9.392 2.384 11.664 5.152 3.088 3.728 5.424 13.56 5.424 13.56l7.864-3.544 3.92 1.296s.824-18.32-7.672-29.64z" fill="#333"/><path fill-rule="evenodd" clip-rule="evenodd" d="M435.328 182.28l13.032 15.128 16.648-28.152-7.024-7.568-22.656 20.592z" fill="#78BAFF"/><path fill-rule="evenodd" clip-rule="evenodd" d="M427.2 181.92l-14.496 15.88-9.088-19.432-2.52-8.576 5.024-5.544 21.08 17.672z" fill="#B6E1FF"/><path fill-rule="evenodd" clip-rule="evenodd" d="M506.08 379.32c-4.216 7.736-10.528 14.736-14.744 18.256-4.208 3.512-6.312 7.72-6.312 7.72s10.528 16.848 16.84 20.352c3.464 1.92 5.608-7.72 7-12.64 1.424-4.896 9.136-16.84 9.136-16.84l-11.92-16.848z" fill="#E79A8D"/><path fill-rule="evenodd" clip-rule="evenodd" d="M388.656 276.792A2.739 2.739 0 01386 273.96c.048-1.496.08-2.92.08-4.328.064-25.224-9.672-46.96-9.768-66.104-.032-9.392 2.592-18.36 10.136-25.992v.016a2.738 2.738 0 013.888-.032c1.088 1.048 1.088 2.8.032 3.864-6.448 6.608-8.512 13.656-8.568 22.144-.096 17.264 9.72 39.552 9.768 66.104 0 1.488-.016 2.976-.08 4.52-.048 1.472-1.28 2.64-2.744 2.64h-.088z" fill="#001C49"/><path fill-rule="evenodd" clip-rule="evenodd" d="M402.064 274.864c-.48 7-6.536 12.312-13.528 11.832-7-.48-12.296-6.544-11.832-13.544.48-6.992 6.544-12.272 13.536-11.808 7 .464 12.288 6.52 11.824 13.52z" fill="#232121"/><path fill-rule="evenodd" clip-rule="evenodd" d="M400.576 274.768c-.424 6.184-5.768 10.848-11.936 10.424-6.192-.416-10.848-5.744-10.424-11.928.408-6.168 5.744-10.856 11.928-10.432 6.168.416 10.84 5.768 10.432 11.936z" fill="#B4B9C1"/><path fill-rule="evenodd" clip-rule="evenodd" d="M395.688 274.2a6.058 6.058 0 01-6.464 5.664 6.103 6.103 0 01-5.656-6.48c.232-3.328 3.128-5.864 6.488-5.64 3.328.216 5.864 3.12 5.632 6.456z" fill="#000"/><path fill-rule="evenodd" clip-rule="evenodd" d="M393.704 274.064c-.152 2.248-2.096 3.952-4.328 3.792a4.055 4.055 0 01-3.792-4.344c.136-2.24 2.088-3.928 4.328-3.776 2.24.16 3.944 2.08 3.792 4.328z" fill="#B4B9C1"/><path fill-rule="evenodd" clip-rule="evenodd" d="M399.456 170.36c.128-.792-14.36 7.728-14.36 7.728l-3.24 13.632 12.08 4.776-9.568 11.784 31.392 89.872s-10.136-91.224-12.624-103.864c-3.04-15.496-3.68-23.928-3.68-23.928zm60.744-4.96c1.928.64 18.392 12.328 18.392 12.328l4.8 12.512-12.888 2.208 11.04 10.312-22.456 99.76s3.312-100.232 4.784-113.016c1.552-12.76-3.672-24.104-3.672-24.104z" fill="#E4E8EF"/><path fill-rule="evenodd" clip-rule="evenodd" d="M470.944 276.072c-5.616-12.416-8.472-41.064-8.928-44.176a1.373 1.373 0 011.168-1.552c.76-.112 1.44.424 1.56 1.168.408 3.144 3.416 31.864 8.712 43.416 2.704 5.904 7.76 8.12 12.28 8.128 3.904.032 7.144-1.768 7.84-3.752l1.784-.784.776 1.784c-1.488 3.6-5.768 5.48-10.4 5.512h-.096c-5.368 0-11.552-2.832-14.696-9.744z" fill="#959BA5"/><path fill-rule="evenodd" clip-rule="evenodd" d="M498.08 280.76c-3.32 3.032-4.232 2.856-5.304 2.112-1.096-.728-1.256-2.352.048-5.784 1.408-3.624 3.744-3.624 5.616-2.368 1.088.728 3.544 2.472-.36 6.04z" fill="#232121"/><path fill-rule="evenodd" clip-rule="evenodd" d="M469.072 285.048c-6.048-.08-11.712-2.984-13.024-7.472a1.38 1.38 0 01.976-1.688 1.382 1.382 0 011.68.992c.488 2.48 5.216 5.496 10.368 5.416 4.096-.016 8.256-1.648 11.064-6.208 6.56-10.84 11.968-40.176 12.76-43.32a1.37 1.37 0 011.672-.984c.728.184 1.168.944.992 1.672-.8 2.952-6.032 32.312-13.08 44.064-3.272 5.376-8.504 7.528-13.296 7.528h-.112z" fill="#959BA5"/><path fill-rule="evenodd" clip-rule="evenodd" d="M454.08 277.8c2.952 3.4 3.856 3.304 5.016 2.728 1.168-.624 1.512-2.216.624-5.768-.984-3.776-3.288-4.048-5.304-3.016-1.176.608-3.808 2.064-.336 6.056z" fill="#232121"/><path fill-rule="evenodd" clip-rule="evenodd" d="M487.224 237.696v-.168c-.08-4.208-1.264-5.952-5.808-7.888-1.008-.416-2.12-.592-3.24-.592-3.72.008-7.272 2.12-7.576 6.056-.28 4.544-2.368 6.104-4.368 6.016l-1.592-.16-.632-.904.912-.648 1.312.152c1.216-.088 2.312-.28 2.792-4.592.424-4.952 4.896-7.528 9.152-7.496 1.296 0 2.608.216 3.832.728 4.848 1.864 6.872 4.72 6.784 9.328h-.04l-.016.136h.056l.008.04c.008 3.648 3.656 3.584 3.656 3.632l.776.776-.776.776c-.016 0-5.16-.048-5.232-5.192z" fill="#959BA5"/><path fill-rule="evenodd" clip-rule="evenodd" d="M480.448 218.288a2.763 2.763 0 01-1.944-3.368c2.92-10.88 4.064-18.384 4.064-23.528-.008-4.584-.872-7.2-2.048-9.048-.824-1.28-.456-3 .824-3.8a2.738 2.738 0 013.8.824c1.88 2.928 2.928 6.776 2.912 12.024 0 5.936-1.28 13.816-4.24 24.952l.016.008a2.756 2.756 0 01-2.656 2.032l-.728-.096z" fill="#001C49"/><path fill-rule="evenodd" clip-rule="evenodd" d="M492.456 239.176a2.746 2.746 0 01-2.208-3.2c.312-1.736.456-3.28.456-4.664-.112-8.304-4.696-11.424-10.264-13.024a8.004 8.004 0 00-2.168-.296c-5.928.016-11.992 6.592-11.992 12.368l.064 1.152.016.016c.208 1.504-.848 2.872-2.352 3.104a2.751 2.751 0 01-3.104-2.344l-.128-1.928c.16-9.064 7.928-17.664 17.496-17.856 1.184 0 2.392.144 3.576.472 6.96 1.616 14.472 7.384 14.36 18.336 0 1.768-.192 3.648-.552 5.672-.24 1.312-1.4 2.24-2.704 2.24l-.496-.048z" fill="#001C49"/><path fill-rule="evenodd" clip-rule="evenodd" d="M514.496 194.8c14.032 2.104 17.776 13.328 23.376 41.4 5.608 28.064 18.72 87.944 20.584 102.904 1.88 14.968-44.672 89.336-44.672 89.336s-6.312-21.032-25.952-35.768c14.032-31.816 28.056-56.136 27.352-60.344-1.64-9.904-5.368-51.224-9.104-62.44-3.752-11.224 5.832-75.472 8.416-75.088z" fill="#fff"/><path fill-rule="evenodd" clip-rule="evenodd" d="M515.184 332.184c.704 4.208-13.32 28.528-27.352 60.336 3.04 2.296 5.664 4.744 8.096 7.224 5.344-10.264 33.496-64.288 35.496-68.28 2.2-4.424-19.728-105.704-20.992-90.56-.136 1.624-2.072 11.712-4.92 25.936.128 1.168.312 2.16.568 2.904 3.736 11.224 7.464 52.544 9.104 62.44z" fill="#E4E8EF"/></g></g></g><g filter="url(#filter2_d)"><rect x="80" y="428" width="170" height="170" rx="16" fill="#fff"/></g><path d="M165 571c32.033 0 58-25.967 58-58s-25.967-58-58-58-58 25.967-58 58 25.967 58 58 58z" fill="#5F46EE"/><g filter="url(#filter3_d)"><rect x="673" y="211" width="122" height="122" rx="16" fill="#fff"/></g><path d="M734 315c23.748 0 43-19.252 43-43s-19.252-43-43-43-43 19.252-43 43 19.252 43 43 43z" fill="#298AEE"/><defs><filter id="filter0_d" x="142.528" y=".574" width="636.4" height="633.427" filterUnits="userSpaceOnUse" color-interpolation-filters="sRGB"><feFlood flood-opacity="0" result="BackgroundImageFix"/><feColorMatrix in="SourceAlpha" values="0 0 0 0 0 0 0 0 0 0 0 0 0 0 0 0 0 0 127 0"/><feOffset dy="20"/><feGaussianBlur stdDeviation="40"/><feColorMatrix values="0 0 0 0 0 0 0 0 0 0 0 0 0 0 0 0 0 0 0.19752 0"/><feBlend in2="BackgroundImageFix" result="effect1_dropShadow"/><feBlend in="SourceGraphic" in2="effect1_dropShadow" result="shape"/></filter><filter id="filter1_d" x="247.731" y="40.574" width="350.781" height="856.949" filterUnits="userSpaceOnUse" color-interpolation-filters="sRGB"><feFlood flood-opacity="0" result="BackgroundImageFix"/><feColorMatrix in="SourceAlpha" values="0 0 0 0 0 0 0 0 0 0 0 0 0 0 0 0 0 0 127 0"/><feOffset dy="20"/><feGaussianBlur stdDeviation="20"/><feColorMatrix values="0 0 0 0 0 0 0 0 0 0 0 0 0 0 0 0 0 0 0.1 0"/><feBlend in2="BackgroundImageFix" result="effect1_dropShadow"/><feBlend in="SourceGraphic" in2="effect1_dropShadow" result="shape"/></filter><filter id="filter2_d" x="0" y="368" width="330" height="330" filterUnits="userSpaceOnUse" color-interpolation-filters="sRGB"><feFlood flood-opacity="0" result="BackgroundImageFix"/><feColorMatrix in="SourceAlpha" values="0 0 0 0 0 0 0 0 0 0 0 0 0 0 0 0 0 0 127 0"/><feOffset dy="20"/><feGaussianBlur stdDeviation="40"/><feColorMatrix values="0 0 0 0 0 0 0 0 0 0 0 0 0 0 0 0 0 0 0.25 0"/><feBlend in2="BackgroundImageFix" result="effect1_dropShadow"/><feBlend in="SourceGraphic" in2="effect1_dropShadow" result="shape"/></filter><filter id="filter3_d" x="593" y="151" width="282" height="282" filterUnits="userSpaceOnUse" color-interpolation-filters="sRGB"><feFlood flood-opacity="0" result="BackgroundImageFix"/><feColorMatrix in="SourceAlpha" values="0 0 0 0 0 0 0 0 0 0 0 0 0 0 0 0 0 0 127 0"/><feOffset dy="20"/><feGaussianBlur stdDeviation="40"/><feColorMatrix values="0 0 0 0 0 0 0 0 0 0 0 0 0 0 0 0 0 0 0.25 0"/><feBlend in2="BackgroundImageFix" result="effect1_dropShadow"/><feBlend in="SourceGraphic" in2="effect1_dropShadow" result="shape"/></filter><linearGradient id="paint0_linear" x1="219.178" y1="692.725" x2="333.757" y2="692.592" gradientUnits="userSpaceOnUse"><stop stop-color="#8FC5EA"/><stop offset="1" stop-color="#3B5160"/></linearGradient><linearGradient id="paint1_linear" x1="219.727" y1="509.404" x2="334.323" y2="508.517" gradientUnits="userSpaceOnUse"><stop stop-color="#fff"/><stop offset="1" stop-color="#696969"/></linearGradient><linearGradient id="paint2_linear" x1="220.134" y1="473.22" x2="334.738" y2="471.34" gradientUnits="userSpaceOnUse"><stop stop-color="#5F46EE"/><stop offset="1" stop-color="#0B0141"/></linearGradient></defs></svg>