<svg width="48" height="28" fill="none" xmlns="http://www.w3.org/2000/svg"><path fill-rule="evenodd" clip-rule="evenodd" d="M0 13.102S8.892 0 24.03 0C39.418 0 48 13.102 48 13.102S39.496 28 24.03 28C9.67 28 0 13.102 0 13.102zm43.038.17C40.156 10.024 33.532 4 24.03 4 14.708 4 8.06 9.892 5.074 13.186 8.17 16.928 15.19 24 24.03 24c9.582 0 16.206-7.054 19.008-10.728zM24 10c2.206 0 4 1.794 4 4s-1.794 4-4 4-4-1.794-4-4 1.794-4 4-4zm-8 4c0-4.416 3.582-8 8-8s8 3.584 8 8a8 8 0 01-16 0z" fill="#E13856"/></svg>