<svg width="48" height="48" fill="none" xmlns="http://www.w3.org/2000/svg"><path fill-rule="evenodd" clip-rule="evenodd" d="M5.39 12.29l6.678 9.996c-2.006 1.818-4.302 3.33-6.55 3.696a7.95 7.95 0 00-.22 1.93c0 1.822 1.062 4.894 3.99 5.884.416.142.772.428 1.002.804C13.614 40.058 18.918 44 24 44c5.08 0 10.888-4.278 13.71-9.4a1.873 1.873 0 011.002-.804c2.928-.99 3.99-4.062 3.99-5.884 0-.524-.046-.986-.112-1.414-2.514-.014-4.838-1.758-6.666-4.16l6.7-10.028C46.17 18.03 48 25.264 48 32.26c0 9.476-5.514 13.626-13.952 12.12C30.95 46.722 27.548 48 24 48s-6.952-1.276-10.05-3.62C5.514 45.886 0 41.736 0 32.26c0-7.004 1.834-14.246 5.39-19.97zm24.22 22.62c-.004.016-1.438 4.402-5.61 4.402-4.018 0-5.604-4.386-5.61-4.402h11.22zm-9.35-8.416c0-1.55-1.048-2.806-2.338-2.806s-2.338 1.256-2.338 2.806c0 1.548 1.048 2.804 2.338 2.804s2.338-1.256 2.338-2.804zm12.156 0c0 1.548-1.048 2.804-2.338 2.804s-2.338-1.256-2.338-2.804c0-1.55 1.048-2.806 2.338-2.806s2.338 1.256 2.338 2.806zM42 6C36.098 2.05 30.014-.026 24 0 18.068.026 12.008 2.11 6 6l8 12c7.996-2.614 12.046-2.582 20 0l8-12zM25.666 3h-3.332v3.334H19v3.332h3.334V13h3.332V9.666H29V6.334h-3.334V3z" fill="#E13856"/></svg>