<svg width="36" height="48" fill="none" xmlns="http://www.w3.org/2000/svg"><path fill-rule="evenodd" clip-rule="evenodd" d="M18 0C11.258 5.732 7.032 6 0 6v23.07C0 38.276 6.406 40.678 18 48c11.594-7.322 18-9.724 18-18.93V6c-7.032 0-11.258-.268-18-6zm0 5.088c5 3.61 9.11 4.584 14 4.832v19.15c0 6.084-3.372 7.654-14 14.216C7.382 36.73 4 35.156 4 29.07V9.92c4.894-.248 9-1.222 14-4.832zM18 13c6.072 0 11 4.928 11 11s-4.928 11-11 11S7 30.072 7 24s4.928-11 11-11zm2 5h-4v4h-4v4h4v4h4v-4h4v-4h-4v-4z" fill="#E13856"/></svg>