<svg width="58" height="48" fill="none" xmlns="http://www.w3.org/2000/svg"><path fill-rule="evenodd" clip-rule="evenodd" d="M52.746 16.8h-5.041c.413-1.168.633-2.296.633-3.383 0-5.583-4.393-9.063-9.724-8.576-6.48.593-10.919 8.905-12.03 10.762-1.274-2.071-5.465-10.171-12.038-10.786-5.1-.477-9.713 2.835-9.713 8.597 0 7.462 10.506 17.003 21.753 27.878 2.803-2.705 5.522-5.3 8.033-7.784l2.344 4.457C33.778 41.09 30.27 44.412 26.586 48 11.689 33.51 0 23.514 0 13.431 0 5.525 5.95.168 13.712.001c5.227-.022 9.969 2.296 12.874 7.084C29.43 2.391 34.189.025 39.28.025c7.404 0 13.886 5.075 13.886 13.428a13.98 13.98 0 01-.42 3.348zm-26.81 9.601a4.836 4.836 0 01-4.186 2.4c-2.668 0-4.833-2.15-4.833-4.8s2.165-4.8 4.833-4.8c1.788 0 3.35.965 4.186 2.4h2.953l4.543-6.504a1.697 1.697 0 012.895.194l5.486 10.65 1.965-3.48c.3-.531.863-.86 1.477-.86H58v4.8H47.094l-4.251 6.98a1.691 1.691 0 01-1.52.809 1.693 1.693 0 01-1.446-.934l-5.452-10.942-2.39 3.375a1.698 1.698 0 01-1.384.712h-4.715z" fill="#E13856"/></svg>