<svg width="48" height="48" fill="none" xmlns="http://www.w3.org/2000/svg"><path fill-rule="evenodd" clip-rule="evenodd" d="M38 44h4V20.138c-2.32-1.506-5.03-3.018-7.63-4.104a11.073 11.073 0 001.394-3.754C39.406 13.78 42.762 15.786 46 18v26h2v4H0v-4h2V18c3.23-2.168 6.596-4.16 10.244-5.66a11.98 11.98 0 001.456 3.726c-2.72 1.126-5.228 2.534-7.678 4.08L6 20.16V44h4V34h28v10zm-24 2h6v-8h-6v8zm8 0h4v-8h-4v8zm6 0h6v-8h-6v8zM10 32h4v-4h-4v4zm8 0h4v-4h-4v4zm8 0h4v-4h-4v4zm8 0h4v-4h-4v4zm-24-6h4v-4h-4v4zm8 0h4v-4h-4v4zm8 0h4v-4h-4v4zm8 0h4v-4h-4v4zM24 0c5.52 0 10 4.48 10 10s-4.48 10-10 10-10-4.48-10-10S18.48 0 24 0zm2 8V4h-4v4h-4v4h4v4h4v-4h4V8h-4z" fill="#fff"/></svg>