<svg width="48" height="48" fill="none" xmlns="http://www.w3.org/2000/svg"><path fill-rule="evenodd" clip-rule="evenodd" d="M36 27.086V23.3l4-3.902v9.374C40 33.554 26.704 48 20.378 48H0V0h33.382l-4.124 4H4v40h14.724C27.036 44 24 32 24 32s12 3.3 12-4.914zM31.68 7.224c-.68.66-.716 1.732-.056 2.414L41.032.514A1.671 1.671 0 0039.824 0c-.432 0-.866.166-1.206.494l-6.938 6.73zM20 27.292c0-.186.074-.372.214-.51l1.168-1.134.986 1.018-1.166 1.134A.71.71 0 0120 27.292zm10.062-13.614l-3.988 3.866c-2.144 2.078-3.238 4.092-4.248 6.902l1.762 1.818c2.838-.922 4.884-1.952 7.028-4.032l3.988-3.868-4.542-4.686zm1.358-1.952l10.274-9.964C44.064-.538 48 1.186 48 4.434c0 .972-.378 1.942-1.132 2.674l-10.276 9.96-5.172-5.342zM18 26h-8v2h8v-2z" fill="#E13856"/></svg>