<svg width="54" height="72" fill="none" xmlns="http://www.w3.org/2000/svg"><path fill-rule="evenodd" clip-rule="evenodd" d="M27 54.813C19.317 63.252 12.411 69.525 9 72L0 54.492c4.659-3.957 11.265-10.245 15.666-15.03-3.786-5.943-8.169-12.942-8.169-20.094 0-4.278 1.47-7.692 4.008-11.043C15.21 3.417 20.793 0 27 0h.144c6.15.054 11.673 3.456 15.351 8.325 2.538 3.351 4.005 6.765 4.005 11.043 0 7.152-4.38 14.151-8.166 20.094C42.735 44.247 49.341 50.535 54 54.492L45 72c-3.357-2.439-10.101-8.553-17.64-16.794l-.36-.393zm0-38.139h-.021c-1.026.024-2.121.198-2.979.534.426 2.157 1.659 4.815 3 7.167l.126-.222c1.293-2.295 2.46-4.854 2.874-6.945-.858-.336-1.953-.51-2.979-.534H27zM26.916 6c-6.687 0-13.578 6.987-13.41 13.728.216 5.952 4.77 12.921 9.633 20.112-3.303 3.999-11.208 11.811-16.074 16.155L10.485 63S22.362 52.083 27 45.876l.111.147C31.824 52.254 43.515 63 43.515 63l3.42-7.005c-4.866-4.344-12.771-12.156-16.074-16.155 4.86-7.191 9.414-14.16 9.633-20.112C40.659 12.987 33.771 6 27.084 6h-.168zm-.018 27.66c-2.223-3.426-8.472-11.823-8.472-16.656 0-4.686 3.939-6.006 8.574-6.006h.108c4.59.021 8.466 1.356 8.466 6.006 0 4.911-6.45 13.497-8.574 16.815l-.102-.159z" fill="#fff"/></svg>