<svg width="96" height="88" fill="none" xmlns="http://www.w3.org/2000/svg"><path fill-rule="evenodd" clip-rule="evenodd" d="M54.8 12.216A7.998 7.998 0 0148 16c-4.416 0-8-3.584-8-8s3.584-8 8-8a8.009 8.009 0 017.036 4.188c10.36 1.18 17.544 7.144 16.932 16.956-.74 11.436-13.176 30.476-24.004 38.76-.388 4.292-2.836 8.928-7.176 11.632 3.972 6.436 10.144 9.14 16.872 8.348 6.516-.764 12.576-5.464 15.84-10.772C70.156 66.548 68 62.524 68 58c0-7.728 6.272-14.004 14-14.004 7.724 0 14 6.276 14 14.004 0 7.744-6.388 14.404-14.912 13.964C76.468 80.492 66.684 88 55.68 88 44.828 88 36.516 82.012 32 71.996c-4.212-2.524-7.316-7.748-7.94-12.116C12.96 51.328 0 31.196 0 20.028 0 10.5 7.5 5.3 16.96 4.2A8 8 0 0132 8c0 4.416-3.584 8-8 8a7.99 7.99 0 01-6.784-3.764c-8.2 1.196-10.208 5.148-8.76 10.928 2.532 10.268 14.42 27.472 23.632 32.484 3.028 1.664 4.772 1.684 7.84.008C50.832 49.724 63.852 28.868 64 20.224c.088-5.152-4.116-7.284-9.2-8.008zM82 64c-3.312 0-6-2.696-6-6 0-3.312 2.688-6 6-6s6 2.688 6 6c0 3.304-2.688 6-6 6z" fill="#fff"/></svg>