<svg width="72" height="72" fill="none" xmlns="http://www.w3.org/2000/svg"><path fill-rule="evenodd" clip-rule="evenodd" d="M26.448 3.963A13.46 13.46 0 0136 0c3.753 0 7.152 1.536 9.6 4.014 12.168.924 17.061 5.217 22.146 25.458C69.738 30.861 72 33.78 72 39.939c0 5.295-2.958 11.973-9.417 14.718C55.539 65.85 46.131 72 36 72c-10.131 0-19.539-6.15-26.586-17.343C2.955 51.912 0 45.234 0 39.939c0-6.159 2.259-9.078 4.251-10.467C9.447 9.135 14.391 4.833 26.448 3.963zM43.2 54H28.8c.012.036 2.046 5.652 7.2 5.652 5.346 0 7.188-5.616 7.2-5.652zm15.705-33H47.223A13.484 13.484 0 0136 27a13.484 13.484 0 01-11.223-6H13.008c-.666 1.893-1.236 3.912-1.74 6-.537 2.238 2.892 2.862 2.751 5.199-.132 2.166-2.28 2.859-4.263 1.983-.552-.246-1.407-.237-2.019.159-3 1.953-2.679 12.552 4.662 15.036 3 1.017 7.737 10.083 12.864 1.296 1.773-3.036 7.365-3.378 10.737-.966 3.369-2.412 8.964-2.07 10.734.966 5.127 8.787 9.864-.279 12.864-1.296 7.344-2.484 7.662-13.083 4.662-15.036-.705-.456-1.593-.345-2.016-.159-1.983.879-4.08.282-4.122-1.887-.048-2.454 3.342-2.613 2.67-5.295a57.74 57.74 0 00-1.887-6zM47.25 27c-3.372 0-6.282 1.887-7.821 4.638A11.338 11.338 0 0036 31.116c-1.197 0-2.31.174-3.429.522C31.032 28.887 28.122 27 24.75 27c-4.962 0-9 4.038-9 9s4.038 9 9 9c3.693 0 6.855-2.244 8.241-5.433.735-1.698 1.182-3.903 3.009-3.903s2.274 2.205 3.009 3.903C40.395 42.756 43.557 45 47.25 45c4.962 0 9-4.038 9-9s-4.038-9-9-9zm0 13.5a4.502 4.502 0 01-4.5-4.5c0-2.484 2.016-4.5 4.5-4.5s4.5 2.016 4.5 4.5-2.016 4.5-4.5 4.5zm-22.5 0a4.502 4.502 0 01-4.5-4.5c0-2.484 2.016-4.5 4.5-4.5s4.5 2.016 4.5 4.5-2.016 4.5-4.5 4.5zM36 6c4.14 0 7.5 3.36 7.5 7.5 0 4.14-3.36 7.5-7.5 7.5-4.14 0-7.5-3.36-7.5-7.5C28.5 9.36 31.86 6 36 6z" fill="#fff"/></svg>