<svg width="72" height="72" fill="none" xmlns="http://www.w3.org/2000/svg"><path fill-rule="evenodd" clip-rule="evenodd" d="M57 66h6V30.207c-3.48-2.259-7.545-4.527-11.445-6.156.987-1.632 1.722-3.567 2.091-5.631C59.109 20.67 64.143 23.679 69 27v39h3v6H0v-6h3V27c4.845-3.252 9.894-6.24 15.366-8.49a17.969 17.969 0 002.184 5.589c-4.08 1.689-7.842 3.801-11.517 6.12L9 30.24V66h6V51h42v15zm-36 3h9V57h-9v12zm12 0h6V57h-6v12zm9 0h9V57h-9v12zM15 48h6v-6h-6v6zm12 0h6v-6h-6v6zm12 0h6v-6h-6v6zm12 0h6v-6h-6v6zm-36-9h6v-6h-6v6zm12 0h6v-6h-6v6zm12 0h6v-6h-6v6zm12 0h6v-6h-6v6zM36 0c8.28 0 15 6.72 15 15 0 8.28-6.72 15-15 15-8.28 0-15-6.72-15-15 0-8.28 6.72-15 15-15zm3 12V6h-6v6h-6v6h6v6h6v-6h6v-6h-6z" fill="#fff"/></svg>