<svg width="52" height="48" fill="none" xmlns="http://www.w3.org/2000/svg"><path fill-rule="evenodd" clip-rule="evenodd" d="M49.77 35.612l-1.562 1.57a1.783 1.783 0 01-2.53 0l-3.398-3.42-4.344 4.374 3.398 3.421c.697.703.7 1.844 0 2.548l-1.563 1.571L42.005 48 52 37.857l-2.23-2.245zM14.28 12.556L2.168 0H7.76l9.611 9.539c1.98-1.51 4.99-3.181 7.34-3.164l16.537 16.652a1.782 1.782 0 002.533 0l1.302-1.31 3.044 3.066-18.72 18.853-3.046-3.065 1.304-1.311a1.816 1.816 0 000-2.55l-16.54-16.655c-.018-2.367 1.655-5.505 3.156-7.499zm16.105 20.71l1.523 1.536 7.454-7.508-16.096-16.21c-2.986 1.29-6.366 4.695-7.456 7.507l3.913 3.94 3.718-3.748 1.504 1.512-3.72 3.749 1.562 1.573 3.718-3.749 1.504 1.512-3.723 3.747 1.534 1.544 3.718-3.746 1.504 1.51-3.72 3.748 1.562 1.571 3.718-3.746 1.504 1.512-3.72 3.746zM3.725 5.576c2.266 3.404 3.72 5.534 3.72 7.604 0 2.07-1.664 3.749-3.72 3.749C1.665 16.929 0 15.25 0 13.18c0-2.07 1.458-4.2 3.724-7.603z" fill="#E13856"/></svg>