<svg width="48" height="48" fill="none" xmlns="http://www.w3.org/2000/svg"><path fill-rule="evenodd" clip-rule="evenodd" d="M0 24c0 13.254 10.75 24 24.008 24 2.162 0 4.248-.312 6.24-.848l-1.33-3.788a19.89 19.89 0 01-4.91.636C12.976 44 4.002 35.028 4.002 24S12.976 4 24.008 4c4.47 0 8.586 1.488 11.918 3.978l-4.1 4.098 14.03 2.708L43.146.758l-4.368 4.366C34.706 1.928 29.588 0 24.008 0 10.75 0 0 10.746 0 24zm22 4V12h4v12h10v4H22zm25.704-.316l-3.996-.318a19.823 19.823 0 01-.908 3.428l3.6 1.81a23.883 23.883 0 001.304-4.92zm-9.092 15.334l-2.826-2.886a19.891 19.891 0 01-3.11 1.866l1.338 3.798a23.86 23.86 0 004.598-2.778zm.154-5.562a20.182 20.182 0 002.298-3.056l3.588 1.806a24.075 24.075 0 01-3.078 4.116l-2.808-2.866zm4.628-18.174h4.152c.284 1.428.434 2.906.454 4.416l-4.03-.322a20.324 20.324 0 00-.576-4.094z" fill="#fff"/></svg>