<svg width="68" height="17" viewBox="0 0 68 17" fill="none" xmlns="http://www.w3.org/2000/svg">
<g opacity="0.5">
<path d="M11.3178 4.10618V5.19686H11.2714C10.4828 4.29586 9.3696 3.72681 8.1636 3.72681C5.24136 3.72681 3.10767 6.14529 3.10767 9.5122C3.10767 9.7493 3.10767 9.98641 3.15405 10.1761H5.89075C5.84436 9.93899 5.84436 9.7493 5.84436 9.5122C5.84436 7.42566 7.00398 6.00303 8.58106 6.00303C10.1581 6.00303 11.3178 7.47308 11.3178 9.5122C11.3178 11.5513 10.1581 13.0214 8.58106 13.0214C8.48829 13.0214 8.39552 13.0214 8.34914 13.0214V15.345C9.46237 15.2976 10.5292 14.7759 11.2714 13.8749H11.3178V14.9656H14.0081V4.05876L11.3178 4.10618Z" fill="#1A183D"/>
<path d="M23.5169 0.170166V5.19682H23.4705C22.682 4.29581 21.5688 3.72676 20.3628 3.72676C17.4405 3.72676 15.3532 6.14524 15.3532 9.51215C15.3532 12.8791 17.4405 15.345 20.3628 15.345C21.5688 15.345 22.682 14.8233 23.4705 13.8749H23.5169V14.9656H26.2072V0.170166H23.5169ZM20.7802 13.0687C19.1568 13.0687 18.0435 11.5987 18.0435 9.55957C18.0435 7.52045 19.2031 6.0504 20.7802 6.0504C22.3573 6.0504 23.4705 7.52045 23.4705 9.55957C23.4705 11.5987 22.3573 13.0687 20.7802 13.0687Z" fill="#1A183D"/>
<path d="M27.5525 9.55956C27.5525 6.09781 29.7326 3.77417 33.0259 3.77417C35.7626 3.77417 37.7571 5.48133 38.0354 8.04208H35.3451C35.1132 6.90397 34.1391 6.09781 32.9795 6.14523C31.3096 6.14523 30.1964 7.52045 30.1964 9.60698C30.1964 11.6935 31.3096 13.0687 32.9795 13.0687C34.1391 13.1161 35.1132 12.31 35.3451 11.1719H38.0354C37.7571 13.7326 35.7162 15.4398 33.0259 15.4398C29.7326 15.3449 27.5525 13.0213 27.5525 9.55956Z" fill="#1A183D"/>
<path d="M38.824 9.55956C38.824 6.09781 41.0504 3.77417 44.3438 3.77417C47.6371 3.77417 49.8635 6.09781 49.8635 9.55956C49.8635 13.0213 47.5907 15.3449 44.2974 15.3449C41.0041 15.3449 38.824 13.0213 38.824 9.55956ZM47.1732 9.55956C47.1732 7.52045 46.06 6.14523 44.3438 6.14523C42.6275 6.14523 41.5143 7.52045 41.5143 9.55956C41.5143 11.5987 42.6275 12.9739 44.3438 12.9739C46.06 12.9739 47.1268 11.5987 47.1732 9.55956Z" fill="#1A183D"/>
<path d="M51.1624 4.10612H53.8527V5.48133H53.899C54.2237 4.48549 55.1514 3.82159 56.1719 3.77417C56.4966 3.77417 56.7749 3.82159 57.0996 3.86901V6.38234C56.8213 6.28749 56.4966 6.24007 56.2183 6.24007C54.7804 6.24007 53.8527 7.61529 53.8527 9.70182V15.013H51.1624V4.10612Z" fill="#1A183D"/>
<path d="M67.4434 9.70182C67.4434 6.00297 65.3561 3.77417 62.2483 3.77417C59.1405 3.77417 56.9604 6.09781 56.9604 9.55956C56.9604 13.0213 59.1405 15.3449 62.3875 15.3449H62.4338V13.1162C61.0423 13.1162 59.9755 12.1677 59.6508 10.6502H67.4434V9.70182ZM59.6044 8.70598C59.7899 7.04623 60.9031 5.95555 62.3411 5.95555C63.779 5.95555 64.7067 7.09366 64.7531 8.70598H59.6044Z" fill="#1A183D"/>
<path d="M65.356 15.4871C66.0221 15.4871 66.562 14.9351 66.562 14.2542C66.562 13.5733 66.0221 13.0212 65.356 13.0212C64.69 13.0212 64.15 13.5733 64.15 14.2542C64.15 14.9351 64.69 15.4871 65.356 15.4871Z" fill="#1A183D"/>
<path d="M0 10.6978H0.510231V12.642C0.69577 12.4523 1.06685 12.3101 1.43792 12.3101C2.31923 12.3101 2.82947 12.9266 2.82947 13.8276C2.82947 14.8234 2.18008 15.4399 1.206 15.4399C0.742155 15.4399 0.278308 15.2976 0 15.1079V10.6978ZM0.510231 13.1637V14.6811C0.742155 14.8234 0.974078 14.8708 1.206 14.8708C1.809 14.8708 2.27285 14.4915 2.27285 13.7801C2.27285 13.0688 1.90177 12.7369 1.29877 12.7369C0.974078 12.7843 0.649385 12.974 0.510231 13.1637Z" fill="#1A183D"/>
<path d="M5.33427 15.3452C4.91681 16.4359 4.6385 16.673 4.22104 16.673C3.98911 16.673 3.80357 16.5782 3.66442 16.4833L3.84996 16.0565C3.94273 16.1039 4.0355 16.1514 4.17465 16.1514C4.40657 16.1514 4.59211 15.9617 4.77765 15.4875L4.82404 15.3452L3.4325 12.3577H4.0355L4.87042 14.2545C4.91681 14.3968 5.00957 14.539 5.05596 14.7287C5.10234 14.5865 5.14873 14.4442 5.19511 14.2545L5.89088 12.3577H6.49388L5.33427 15.3452Z" fill="#1A183D"/>
</g>
</svg>
