<svg width="37" height="36" fill="none" xmlns="http://www.w3.org/2000/svg"><g clip-path="url(#clip0)" ><path d="M36.006 24.572L34.29 22.87a.703.703 0 10-.99.998l1.715 1.703a.701.701 0 00.995-.005.703.703 0 00-.004-.994zm-3.465-3.444a.703.703 0 00-.995 0v.001a.703.703 0 10.995-.001z"/><path d="M26.546 24.37l6.822-6.822a2.653 2.653 0 000-3.747 2.63 2.63 0 00-1.278-.707c.16-.346.245-.725.245-1.118 0-.708-.275-1.373-.776-1.874a2.629 2.629 0 00-1.423-.737 2.652 2.652 0 00-.642-2.704 2.634 2.634 0 00-1.422-.736 2.655 2.655 0 00-.643-2.706c-.5-.5-1.166-.776-1.874-.776-.45 0-.881.112-1.265.321l-.068-.073A4.693 4.693 0 0020.797 1.2h-5.522a.703.703 0 00-.703.703v.922c0 .37.062.729.182 1.067a2.646 2.646 0 00-1.018-.202c-.708 0-1.373.276-1.873.776a2.652 2.652 0 00-.642 2.706 2.635 2.635 0 00-1.423.736 2.654 2.654 0 00-.643 2.704 2.63 2.63 0 00-1.422.738 2.655 2.655 0 00-.53 2.989c-.48.11-.922.352-1.279.708a2.653 2.653 0 000 3.748l1.403 1.403L.42 27.105a.703.703 0 00.994.995l6.974-6.974c.395.226.843.346 1.31.346.708 0 1.373-.276 1.874-.776a2.643 2.643 0 00.772-1.981l.107.002c.679 0 1.357-.258 1.874-.774a2.633 2.633 0 00.774-1.981l.105.002c.679 0 1.358-.258 1.874-.775a2.633 2.633 0 00.774-1.98l.106.002c.678 0 1.357-.258 1.873-.775a2.654 2.654 0 00.176-3.554l4.669-4.668c.235-.235.547-.364.879-.364a1.24 1.24 0 01.879 2.123l-.688.688-2.497 2.497a.703.703 0 00.994.995l2.497-2.497a1.245 1.245 0 011.76 0 1.245 1.245 0 010 1.758l-.69.689-1.808 1.809a.703.703 0 00.994.994l1.81-1.809c.234-.235.546-.364.879-.364a1.239 1.239 0 011.243 1.244c0 .332-.13.644-.364.879l-.945.945-.864.864a.703.703 0 10.995.995l.864-.865a1.245 1.245 0 011.758 0 1.245 1.245 0 010 1.76l-6.822 6.821a9.527 9.527 0 01-6.41 2.793.703.703 0 00-.474.207L12.364 32.7a.703.703 0 00.997.993l4.635-4.653a6.537 6.537 0 003.97 1.022l3.628 3.628a.701.701 0 00.995 0 .703.703 0 000-.995L22.73 28.84a.704.704 0 00-.554-.204l-.223.018a5.133 5.133 0 01-2.935-.639l.452-.453a10.928 10.928 0 007.075-3.19zm-15.969-4.669a1.235 1.235 0 01-.879.364c-.332 0-.645-.129-.88-.364l-1.9-1.9a1.245 1.245 0 01.88-2.123c.332 0 .644.13.88.364l1.9 1.9a1.245 1.245 0 010 1.76zm2.754-2.753a1.245 1.245 0 01-1.76 0l-1.9-1.9-.944-.945a1.245 1.245 0 01.88-2.123c.331 0 .644.129.878.364l2.846 2.845c.235.235.364.547.364.88 0 .332-.13.644-.364.879zm2.753-2.753a1.245 1.245 0 01-1.759 0l-3.533-3.534a1.235 1.235 0 01-.364-.88 1.24 1.24 0 011.244-1.243c.317 0 .635.122.878.364l1.61 1.61 1.924 1.924a1.24 1.24 0 010 1.759zm2.753-2.754a1.245 1.245 0 01-1.759 0l-3.533-3.533-.001-.001-.687-.687a1.245 1.245 0 01.88-2.123c.318 0 .636.121.878.364l4.222 4.221c.235.235.364.548.364.88 0 .332-.129.644-.364.88zm.185-3.563l-1.931-1.931c.218.047.444.071.673.071h.015l1.93-.009a.703.703 0 00-.003-1.406h-.003l-1.93.009h-.009c-.475 0-.923-.185-1.26-.52a1.774 1.774 0 01-.526-1.267v-.219h4.82c.904 0 1.777.38 2.394 1.043l.029.031-4.199 4.198z"/></g><defs><clipPath id="clip0"><path fill="#fff" transform="translate(.214)" d="M0 0h36v36H0z"/></clipPath></defs></svg>