<svg width="37" height="36" viewBox="0 0 37 36" fill="none" xmlns="http://www.w3.org/2000/svg">
<g clip-path="url(#clip0)">
<path d="M17.7231 4.3437L18.0582 4.6464L18.3933 4.3437C20.2855 2.63474 22.7086 1.70001 25.2781 1.70001C28.0263 1.70001 30.6076 2.76917 32.5508 4.71243C36.5606 8.72232 36.5606 15.248 32.5509 19.2579L31.2566 20.5522L31.1101 20.6986V20.9057V34.7803C31.1101 34.8215 31.0767 34.855 31.0355 34.855H5.08097C5.03977 34.855 5.00634 34.8215 5.00634 34.7803V20.9057V20.6986L4.8599 20.5522L3.5656 19.2579C-0.44429 15.248 -0.44429 8.72232 3.5656 4.71243C5.50885 2.76917 8.0901 1.70001 10.8383 1.70001C13.4078 1.70001 15.8309 2.63467 17.7231 4.3437Z" stroke="#2EC4B6"/>
<path d="M28.737 20.093H25.3556L27.4557 15.0639C27.578 14.7711 27.4398 14.4345 27.1468 14.3122C26.8539 14.1899 26.5174 14.3282 26.3951 14.6211L24.1101 20.093H18.6329V14.8425C18.6329 14.5251 18.3756 14.2679 18.0582 14.2679C17.7409 14.2679 17.4836 14.5251 17.4836 14.8425V20.093H12.0064L9.72133 14.6211C9.59905 14.3282 9.26247 14.1901 8.96964 14.3122C8.67681 14.4345 8.53851 14.7711 8.66079 15.0639L10.7609 20.093H7.37944C7.06209 20.093 6.80481 20.3503 6.80481 20.6676C6.80481 20.985 7.06209 21.2423 7.37944 21.2423H28.737C29.0543 21.2423 29.3116 20.985 29.3116 20.6676C29.3116 20.3503 29.0543 20.093 28.737 20.093Z" fill="#2EC4B6"/>
</g>
<defs>
<clipPath id="clip0">
<rect width="36" height="36" fill="white" transform="translate(0.213898)"/>
</clipPath>
</defs>
</svg>
