<svg width="37" height="36" fill="none" xmlns="http://www.w3.org/2000/svg"><path d="M31.118 16.211l-1.519-.893a11.099 11.099 0 00-.148-.544l1.08-1.636a.6.6 0 00.045-.582 13.173 13.173 0 00-1.373-2.313.612.612 0 00-.512-.242l-2.013.099a12.63 12.63 0 00-.388-.38l.1-1.95a.6.6 0 00-.253-.522 13.665 13.665 0 00-2.364-1.338.599.599 0 00-.562.041l-1.688 1.063a11.86 11.86 0 00-.557-.145l-.92-1.747a.6.6 0 00-.53-.32h-2.604a.6.6 0 00-.53.32l-.92 1.747c-.187.044-.373.092-.557.145l-1.687-1.063a.599.599 0 00-.562-.041 13.64 13.64 0 00-2.365 1.339.6.6 0 00-.253.52l.1 1.951c-.132.124-.261.25-.387.38L7.737 10a.626.626 0 00-.512.243 13.277 13.277 0 00-1.372 2.313.6.6 0 00.044.582l1.08 1.636a10.6 10.6 0 00-.148.544l-1.52.893a.6.6 0 00-.295.517v2.544a.6.6 0 00.296.517l1.519.893c.045.183.094.365.148.545l-1.08 1.634a.6.6 0 00-.045.582c.378.816.838 1.591 1.373 2.313.121.16.312.25.512.243L9.75 25.9c.127.13.256.256.388.38l-.1 1.95a.6.6 0 00.253.521c.742.524 1.534.972 2.364 1.339a.6.6 0 00.562-.041l1.688-1.063c.182.052.369.1.557.145l.92 1.747a.6.6 0 00.53.32h2.604a.6.6 0 00.53-.32l.92-1.747c.187-.044.373-.093.557-.145l1.687 1.063a.6.6 0 00.562.041 13.64 13.64 0 002.365-1.339.6.6 0 00.253-.52l-.1-1.951c.132-.123.261-.25.387-.38l2.014.1a.61.61 0 00.512-.243c.535-.723.995-1.498 1.373-2.313a.6.6 0 00-.044-.582l-1.08-1.635c.053-.18.102-.362.147-.545l1.52-.893a.6.6 0 00.295-.517V16.73a.6.6 0 00-.296-.518zm-.904 2.718l-1.445.85a.6.6 0 00-.282.387 9.976 9.976 0 01-.264.967.6.6 0 00.07.517l1.05 1.59a11.994 11.994 0 01-.92 1.545l-1.961-.096a.627.627 0 00-.47.19 10.58 10.58 0 01-.715.7.599.599 0 00-.2.479l.097 1.899c-.51.34-1.044.642-1.598.904l-1.644-1.036a.598.598 0 00-.499-.065c-.322.101-.656.188-.992.259a.599.599 0 00-.408.308l-.88 1.672h-1.879l-.88-1.672a.6.6 0 00-.407-.308 10.76 10.76 0 01-.992-.259.597.597 0 00-.5.065l-1.644 1.036a12.492 12.492 0 01-1.598-.905l.098-1.898a.6.6 0 00-.201-.48 10.42 10.42 0 01-.716-.699.614.614 0 00-.468-.19l-1.962.096a11.945 11.945 0 01-.92-1.545l1.05-1.59a.599.599 0 00.07-.517 10.35 10.35 0 01-.263-.967.6.6 0 00-.282-.388l-1.445-.85v-1.857l1.445-.85a.6.6 0 00.282-.387c.072-.328.16-.653.263-.967a.6.6 0 00-.069-.517l-1.05-1.59c.267-.537.575-1.054.919-1.545l1.962.097a.599.599 0 00.469-.191c.227-.244.467-.48.715-.7a.6.6 0 00.201-.479l-.098-1.899c.51-.34 1.045-.642 1.599-.904l1.643 1.036a.6.6 0 00.5.065c.322-.101.656-.188.992-.259a.599.599 0 00.408-.307L17.274 6h1.88l.88 1.673a.6.6 0 00.407.307c.338.072.672.159.992.259.168.052.35.028.5-.065l1.643-1.036a12.48 12.48 0 011.599.905l-.099 1.898a.6.6 0 00.202.48c.247.22.488.455.716.699a.61.61 0 00.468.19l1.962-.095c.345.49.652 1.007.92 1.545l-1.05 1.589a.599.599 0 00-.07.517c.102.314.191.64.263.967a.6.6 0 00.282.388l1.445.85v1.857z" fill="#2EC4B6"/><path d="M18.214 9a9 9 0 100 18 9 9 0 009-9 9.01 9.01 0 00-9-9zm0 16.8a7.8 7.8 0 110-15.6 7.8 7.8 0 017.8 7.8 7.808 7.808 0 01-7.8 7.8zm12.6-23.399v3.6h-3.6v1.2h4.2a.6.6 0 00.6-.6v-4.2h-1.2zm-25.8 26.398a.6.6 0 00-.6.6v4.2h1.2v-3.6h3.6v-1.2h-4.2z" fill="#2EC4B6"/><path d="M3.317 7.899A18 18 0 00.214 18a17.904 17.904 0 003.104 10.107l.992-.675C-.898 19.752 1.105 9.306 8.785 4.098a16.803 16.803 0 0118.861 0l.675-.993C20.093-2.475 8.898-.329 3.317 7.899zm29.911.171l-1 .662c5.117 7.74 2.991 18.163-4.75 23.28a16.804 16.804 0 01-18.697-.11l-.675.993c8.23 5.58 19.424 3.434 25.005-4.794a18 18 0 00.117-20.031z" fill="#2EC4B6"/></svg>