<svg width="10" height="18" viewBox="0 0 10 18" fill="none" xmlns="http://www.w3.org/2000/svg">
<path d="M9.24219 0.173862L6.93866 0.170166C4.35073 0.170166 2.6783 1.88603 2.6783 4.54178V6.55739H0.362207C0.162069 6.55739 0 6.71964 0 6.91978V9.84017C0 10.0403 0.162254 10.2024 0.362207 10.2024H2.6783V17.5714C2.6783 17.7716 2.84037 17.9336 3.04051 17.9336H6.06235C6.26248 17.9336 6.42455 17.7714 6.42455 17.5714V10.2024H9.1326C9.33274 10.2024 9.49481 10.0403 9.49481 9.84017L9.49592 6.91978C9.49592 6.82369 9.45767 6.73166 9.38984 6.66365C9.32202 6.59564 9.22962 6.55739 9.13353 6.55739H6.42455V4.84873C6.42455 4.02748 6.62025 3.61058 7.69006 3.61058L9.24182 3.61002C9.44177 3.61002 9.60384 3.44777 9.60384 3.24782V0.536069C9.60384 0.336301 9.44196 0.174232 9.24219 0.173862Z" fill="#1A183D"/>
</svg>
