<svg width="37" height="36" fill="none" xmlns="http://www.w3.org/2000/svg"><path d="M35.776 10.861c-.508-5.598-4.465-9.66-9.418-9.66-3.3 0-6.32 1.778-8.02 4.627-1.686-2.886-4.583-4.628-7.83-4.628-4.952 0-8.91 4.062-9.417 9.66-.04.248-.205 1.55.296 3.672.721 3.061 2.387 5.846 4.818 8.05L18.329 33.6l12.332-11.017c2.43-2.205 4.097-4.989 4.819-8.051.5-2.122.336-3.423.296-3.67zm-1.6 3.364c-.658 2.796-2.185 5.343-4.41 7.362l-11.428 10.21L7.104 21.59c-2.23-2.023-3.755-4.57-4.414-7.366-.474-2.008-.28-3.143-.279-3.15l.01-.068C2.857 6.101 6.258 2.54 10.51 2.54c3.137 0 5.898 1.93 7.209 5.037l.616 1.463.617-1.463c1.29-3.059 4.197-5.036 7.408-5.036 4.25 0 7.652 3.56 8.095 8.53.002.01.196 1.146-.277 3.154z"/></svg>