<svg width="19" height="18" viewBox="0 0 19 18" fill="none" xmlns="http://www.w3.org/2000/svg">
<path d="M13.3477 0.170166H5.20104C2.54964 0.170166 0.392628 2.32718 0.392628 4.97858V13.1254C0.392628 15.7766 2.54964 17.9336 5.20104 17.9336H13.3478C15.9991 17.9336 18.1561 15.7766 18.1561 13.1254V4.97858C18.1561 2.32718 15.9991 0.170166 13.3477 0.170166V0.170166ZM17.1147 13.1254C17.1147 15.2024 15.4249 16.8923 13.3477 16.8923H5.20104C3.12385 16.8923 1.434 15.2024 1.434 13.1254V4.97858C1.434 2.90139 3.12385 1.21154 5.20104 1.21154H13.3478C15.4249 1.21154 17.1147 2.90139 17.1147 4.97858V13.1254Z" fill="#1A183D"/>
<path d="M9.27437 4.19482C6.59613 4.19482 4.4173 6.37365 4.4173 9.05189C4.4173 11.7301 6.59613 13.909 9.27437 13.909C11.9526 13.909 14.1314 11.7301 14.1314 9.05189C14.1314 6.37365 11.9526 4.19482 9.27437 4.19482ZM9.27437 12.8676C7.17048 12.8676 5.45867 11.1559 5.45867 9.05189C5.45867 6.94801 7.17048 5.2362 9.27437 5.2362C11.3784 5.2362 13.0901 6.94801 13.0901 9.05189C13.0901 11.1559 11.3784 12.8676 9.27437 12.8676Z" fill="#1A183D"/>
<path d="M14.2476 2.46997C13.4561 2.46997 12.8124 3.11385 12.8124 3.90518C12.8124 4.69664 13.4561 5.34052 14.2476 5.34052C15.039 5.34052 15.6829 4.69664 15.6829 3.90518C15.6829 3.11371 15.039 2.46997 14.2476 2.46997ZM14.2476 4.29901C14.0305 4.29901 13.8537 4.12229 13.8537 3.90518C13.8537 3.68793 14.0305 3.51134 14.2476 3.51134C14.4648 3.51134 14.6416 3.68793 14.6416 3.90518C14.6416 4.12229 14.4648 4.29901 14.2476 4.29901Z" fill="#1A183D"/>
</svg>
