<svg width="36" height="28" fill="none" xmlns="http://www.w3.org/2000/svg"><path d="M28.666 13.461L22.226 1.27a.879.879 0 00-.778-.47h-.002a.879.879 0 00-.776.465L14.769 12.28a.526.526 0 00.046.568l1.444 1.894a.878.878 0 001.357.053L19.9 12.24l4.439 5.241a.88.88 0 00.664.312h.008a.88.88 0 00.662-.3l2.63-3a.541.541 0 00.043-.055l.292-.437a.526.526 0 00.028-.539zm-1.177.362l-2.476 2.824-4.438-5.24a.88.88 0 00-.66-.31h-.012a.88.88 0 00-.656.293l-2.277 2.548-1.112-1.46 5.588-10.43 6.142 11.628-.099.147z"/><path d="M35.605 26.597l-4.134-7.826a.527.527 0 00-.93.492l4 7.572H20.516c-.017-.082-6.11-11.645-6.11-11.645l.905-1.691.948 1.243a.877.877 0 001.357.053L19.9 12.24l4.439 5.24a.88.88 0 00.664.312h.008a.88.88 0 00.667-.306l2.42-2.846.984 1.862a.526.526 0 10.93-.492L22.226 1.27A.879.879 0 0021.45.8h-.003a.879.879 0 00-.776.465l-5.528 10.32-.373.695-.957 1.787-2.845-5.387a.878.878 0 00-.777-.469h-.002l-.033.001-.026.001c-.009 0-.017.002-.025.003l-.035.003-.032.006-.026.004a.879.879 0 00-.6.447l-1.927 3.598-3.241 6.05-.002.004-4.427 8.264c-.148.276-.14.6.02.868a.874.874 0 00.756.428h34.237a.874.874 0 00.754-.426c.16-.266.17-.59.024-.865zM16.017 12.18l5.429-10.133 6.122 11.59-2.557 3.006-4.436-5.237a.88.88 0 00-.66-.31h-.012a.88.88 0 00-.656.293l-2.277 2.548-1.112-1.46.159-.297zM.878 26.835l3.987-7.443 1.538 1.288a.878.878 0 001.222-.089l1.763-1.976 1.136 1.127a.527.527 0 00.741-.748L10 17.74a.884.884 0 00-1.277.039l-1.772 1.987-1.578-1.32 4.814-8.986 6.211 11.758-1.5 1.382-1.371-1.361a.527.527 0 00-.742.748l1.49 1.477a.878.878 0 001.216.022l1.416-1.305 2.46 4.655H.878z"/></svg>