<svg width="30" height="18" viewBox="0 0 30 18" fill="none" xmlns="http://www.w3.org/2000/svg">
<path d="M7.60091 8.65479C6.65926 8.65479 5.89313 9.42086 5.89313 10.3626C5.89313 11.3042 6.6592 12.0703 7.60091 12.0703C8.54255 12.0703 9.30868 11.3042 9.30868 10.3626C9.30868 9.42092 8.54255 8.65479 7.60091 8.65479ZM7.60091 10.9318C7.28701 10.9318 7.03163 10.6765 7.03163 10.3626C7.03163 10.0487 7.28701 9.79329 7.60091 9.79329C7.91481 9.79329 8.17018 10.0487 8.17018 10.3626C8.17018 10.6765 7.91481 10.9318 7.60091 10.9318Z" fill="#1A183D"/>
<path d="M7.60094 6.60571C5.52922 6.60571 3.84387 8.29112 3.84387 10.3628C3.84387 12.4345 5.52928 14.1198 7.60094 14.1198C9.67266 14.1198 11.358 12.4344 11.358 10.3628C11.358 8.29112 9.6726 6.60571 7.60094 6.60571ZM7.60094 12.9814C6.15708 12.9814 4.98237 11.8067 4.98237 10.3628C4.98237 8.91898 6.15708 7.74427 7.60094 7.74427C9.0448 7.74427 10.2195 8.91898 10.2195 10.3628C10.2195 11.8067 9.0448 12.9814 7.60094 12.9814Z" fill="#1A183D"/>
<path d="M21.6047 8.65479C20.663 8.65479 19.8969 9.42086 19.8969 10.3626C19.8969 11.3042 20.663 12.0703 21.6047 12.0703C22.5463 12.0703 23.3125 11.3042 23.3125 10.3626C23.3125 9.42092 22.5464 8.65479 21.6047 8.65479ZM21.6047 10.9318C21.2908 10.9318 21.0354 10.6765 21.0354 10.3626C21.0354 10.0487 21.2908 9.79329 21.6047 9.79329C21.9186 9.79329 22.174 10.0487 22.174 10.3626C22.174 10.6765 21.9186 10.9318 21.6047 10.9318Z" fill="#1A183D"/>
<path d="M21.6046 6.60571C19.5329 6.60571 17.8475 8.29112 17.8475 10.3628C17.8475 12.4345 19.5329 14.1198 21.6046 14.1198C23.6763 14.1198 25.3617 12.4344 25.3617 10.3628C25.3617 8.29112 23.6763 6.60571 21.6046 6.60571ZM21.6046 12.9814C20.1607 12.9814 18.986 11.8067 18.986 10.3628C18.986 8.91898 20.1607 7.74427 21.6046 7.74427C23.0485 7.74427 24.2232 8.91898 24.2232 10.3628C24.2232 11.8067 23.0485 12.9814 21.6046 12.9814Z" fill="#1A183D"/>
<path d="M27.0042 14.8565C26.7797 14.6365 26.4193 14.6401 26.1992 14.8646C26.184 14.8801 26.1686 14.8957 26.1532 14.9111C25.9309 15.1335 25.9309 15.4939 26.1532 15.7162C26.2644 15.8273 26.41 15.8829 26.5557 15.8829C26.7014 15.8829 26.8471 15.8273 26.9584 15.7162C26.9765 15.6981 26.9945 15.6798 27.0124 15.6615C27.2324 15.4371 27.2288 15.0766 27.0042 14.8565Z" fill="#1A183D"/>
<path d="M29.0544 9.00955C28.8541 7.90122 28.4136 6.86639 27.7655 5.96186L29.0899 3.83208C29.199 3.65657 29.2045 3.43563 29.104 3.25494C29.0036 3.07426 28.8131 2.96216 28.6064 2.96216H23.3903C21.6157 1.61793 19.4138 0.716247 17.0079 0.350998C16.6973 0.303862 16.4068 0.517512 16.3596 0.828395C16.3124 1.13922 16.5262 1.4295 16.837 1.47669C18.343 1.70537 19.7583 2.16085 21.0206 2.81375C19.2183 2.95032 17.5424 3.7176 16.251 5.00906C15.5323 5.72778 14.9761 6.56553 14.6004 7.47779C13.5345 4.90118 11.086 3.03617 8.18476 2.81381C9.44679 2.16102 10.8618 1.70554 12.3676 1.4768C12.6784 1.42961 12.8921 1.13934 12.8449 0.828452C12.7977 0.517626 12.5068 0.303805 12.1966 0.351112C9.79109 0.716532 7.58935 1.6181 5.81508 2.96216H0.599064C0.392359 2.96216 0.201878 3.07426 0.101457 3.25494C0.00103659 3.43563 0.00650167 3.65657 0.115632 3.83208L1.44165 5.96465C0.553351 7.20522 0.0297852 8.72389 0.0297852 10.3626C0.0297852 14.5374 3.42616 17.9337 7.6009 17.9337C9.73331 17.9337 11.6623 17.0473 13.0396 15.6239L14.1384 17.2477C14.2443 17.4042 14.421 17.498 14.6099 17.498C14.7989 17.498 14.9755 17.4043 15.0814 17.2477L16.1723 15.6357C16.1984 15.6626 16.2244 15.6896 16.251 15.7163C17.699 17.1643 19.6468 17.9305 21.619 17.9304C22.6948 17.9304 23.7781 17.7024 24.7911 17.2325C25.0764 17.1003 25.2003 16.7618 25.0681 16.4767C24.9358 16.1915 24.5973 16.0675 24.3121 16.1997C21.8736 17.3305 18.9576 16.8128 17.056 14.9111C16.8883 14.7434 16.7314 14.5678 16.5847 14.3856C16.5682 14.3613 16.5497 14.3381 16.5292 14.3162C15.6491 13.1912 15.172 11.8136 15.172 10.3626C15.172 8.64436 15.8411 7.02903 17.0561 5.81414C18.2711 4.59912 19.8864 3.92999 21.6046 3.92999C23.3228 3.92999 24.9382 4.59912 26.1531 5.81414C26.3212 5.98224 26.4781 6.15792 26.6245 6.33969C26.633 6.35079 26.6417 6.36178 26.6512 6.37231C28.1223 8.22309 28.4658 10.7225 27.5035 12.9327C27.378 13.2209 27.5099 13.5563 27.7983 13.6818C28.0865 13.8072 28.4219 13.6754 28.5474 13.387C29.1476 12.0084 29.323 10.4947 29.0544 9.00955ZM3.34982 4.10083C2.94039 4.37967 2.55977 4.69767 2.21302 5.0492L1.62331 4.10083H3.34982ZM7.6009 16.7952C4.0539 16.7952 1.16829 13.9096 1.16829 10.3626C1.16829 6.81561 4.0539 3.92999 7.6009 3.92999C11.1479 3.92999 14.0335 6.81567 14.0335 10.3626C14.0335 13.9096 11.1478 16.7952 7.6009 16.7952ZM15.4141 14.7246L14.61 15.913L13.7959 14.71C14.1152 14.2564 14.3857 13.7664 14.6004 13.2474C14.8142 13.7668 15.0866 14.2619 15.4141 14.7246ZM26.9942 5.04635C26.982 5.03405 26.9704 5.0213 26.9582 5.00906C26.6184 4.6692 26.2517 4.36612 25.8633 4.10083H27.5822L26.9942 5.04635Z" fill="#1A183D"/>
<path d="M14.6388 0.170223L14.6028 0.170166C14.2884 0.170166 14.0335 0.425089 14.0335 0.739444C14.0335 1.0538 14.2884 1.30872 14.6028 1.30872L14.6331 1.30878C14.6341 1.30878 14.6351 1.30878 14.636 1.30878C14.9491 1.30878 15.2037 1.05579 15.2053 0.742347C15.2068 0.427992 14.9532 0.171874 14.6388 0.170223Z" fill="#1A183D"/>
</svg>
