<svg width="15" height="15" fill="none" xmlns="http://www.w3.org/2000/svg"><path d="M13.742 11.1l-2.167-2.167c-.431-.43-1.146-.417-1.593.03L8.89 10.055a31.01 31.01 0 01-.215-.12c-.69-.382-1.633-.906-2.626-1.9-.996-.995-1.52-1.94-1.903-2.63l-.118-.21.733-.732.36-.36c.448-.448.46-1.163.03-1.594L2.982.342c-.43-.431-1.145-.418-1.593.03L.78.986l.016.016a3.532 3.532 0 00-.503.888 3.68 3.68 0 00-.224.9c-.286 2.373.798 4.54 3.74 7.482 4.066 4.066 7.343 3.76 7.485 3.744a3.66 3.66 0 001.787-.728l.014.012.618-.606c.447-.447.46-1.162.03-1.594z" fill="#1A183D"/></svg>