<svg width="20" height="19" fill="none" xmlns="http://www.w3.org/2000/svg"><path fill-rule="evenodd" clip-rule="evenodd" d="M2.49 0h14.43c.33-.007.657.048.963.163.306.115.584.287.817.506.233.219.416.48.538.767.122.287.18.594.173.903v13.544c.008.309-.05.616-.173.904a2.277 2.277 0 01-.538.766c-.233.219-.51.39-.817.506-.305.115-.633.17-.962.162H2.49a2.571 2.571 0 01-.963-.162 2.45 2.45 0 01-.816-.506 2.276 2.276 0 01-.539-.767A2.16 2.16 0 010 15.883V2.339a2.16 2.16 0 01.172-.903C.296 1.148.48.888.712.669c.232-.219.51-.39.816-.506a2.56 2.56 0 01.963-.162zm11.65 2.025a.912.912 0 00-.619.24.804.804 0 00-.26.58V4.81a.804.804 0 00.26.58c.165.153.387.24.62.24h2.19a.902.902 0 00.615-.241.795.795 0 00.255-.58V2.846a.795.795 0 00-.255-.579.902.902 0 00-.615-.241h-2.19zm3.07 5.681h-1.7a5.04 5.04 0 01.24 1.563c-.049 1.47-.706 2.866-1.831 3.89-1.126 1.023-2.631 1.596-4.198 1.596-1.567 0-3.073-.573-4.199-1.597C4.397 12.136 3.74 10.74 3.691 9.27c0-.53.085-1.056.25-1.563H2.16v7.699c0 .095.019.19.058.277a.72.72 0 00.166.235.786.786 0 00.25.158.813.813 0 00.296.055h13.51a.813.813 0 00.545-.213.72.72 0 00.167-.235.682.682 0 00.058-.277v-7.7zm-7.49-2.18c-.741.022-1.46.25-2.065.652a3.59 3.59 0 00-1.338 1.615 3.344 3.344 0 00-.166 2.04c.16.681.528 1.303 1.062 1.788a3.87 3.87 0 001.936.939c.73.128 1.483.05 2.167-.221a3.733 3.733 0 001.676-1.308c.41-.58.629-1.262.629-1.959a3.507 3.507 0 00-1.169-2.53 3.98 3.98 0 00-2.731-1.016z" fill="#A4A4A4"/></svg>