<svg width="22" height="17" fill="none" xmlns="http://www.w3.org/2000/svg"><path fill-rule="evenodd" clip-rule="evenodd" d="M21.86 1.982c-.82.337-1.69.557-2.58.651A4.175 4.175 0 0021.25.315a9.18 9.18 0 01-2.85 1.016A4.557 4.557 0 0016.111.102a4.754 4.754 0 00-2.629.193c-.835.31-1.552.85-2.058 1.547a4.028 4.028 0 00-.774 2.367c.003.323.04.646.11.963a13.088 13.088 0 01-5.15-1.296A12.554 12.554 0 011.52.771a3.99 3.99 0 00-.61 2.122c-.005.701.18 1.392.54 2.006a4.32 4.32 0 001.46 1.497 4.619 4.619 0 01-2.02-.534v.053A3.904 3.904 0 001.9 8.59a4.473 4.473 0 002.58 1.453 4.93 4.93 0 01-1.18.144 6.164 6.164 0 01-.85-.065c.283.83.835 1.556 1.58 2.076a4.572 4.572 0 002.61.84c-1.578 1.182-3.542 1.817-5.56 1.798A10.09 10.09 0 010 14.784a13.027 13.027 0 006.88 1.888c1.526.01 3.042-.23 4.48-.71a11.692 11.692 0 003.58-1.9c1.959-1.585 3.401-3.657 4.16-5.978a11.29 11.29 0 00.52-3.38c0-.243 0-.425-.01-.546a9.09 9.09 0 002.25-2.176z" fill="#fff"/></svg>