<svg width="65" height="65" fill="none" xmlns="http://www.w3.org/2000/svg"><path d="M61.458 33.495l.61-.995-.61-.995c-.102-.166-2.554-4.124-7.317-8.09-6.335-5.273-13.799-8.061-21.584-8.061-7.783 0-15.265 2.786-21.637 8.058-4.79 3.963-7.27 7.918-7.373 8.084L2.925 32.5l.622 1.004c.103.166 2.583 4.12 7.373 8.085 6.372 5.271 13.854 8.058 21.637 8.058 7.785 0 15.249-2.788 21.584-8.062 4.763-3.966 7.215-7.924 7.317-8.09zm-9.855 5.246c-5.699 4.71-12.107 7.097-19.046 7.097-6.941 0-13.37-2.39-19.108-7.101-2.967-2.437-4.98-4.905-5.965-6.237.986-1.333 2.998-3.8 5.965-6.237 5.738-4.712 12.166-7.1 19.108-7.1 6.939 0 13.346 2.387 19.046 7.096 2.954 2.44 4.949 4.912 5.92 6.241-.972 1.33-2.966 3.801-5.92 6.241z" fill="#0065FD"/><path d="M32.5 21.057c-6.31 0-11.443 5.133-11.443 11.443S26.191 43.942 32.5 43.942c6.31 0 11.443-5.133 11.443-11.442 0-6.31-5.133-11.443-11.443-11.443zm0 19.077c-4.21 0-7.634-3.425-7.634-7.634 0-4.21 3.425-7.634 7.634-7.634 4.21 0 7.634 3.425 7.634 7.634 0 4.21-3.425 7.634-7.634 7.634zM3.809 3.809h7.95V0H0v11.616h3.809V3.81zM53.241 0v3.809h7.95v7.807H65V0H53.241zM3.809 53.384H0V65h11.759v-3.809h-7.95v-7.807zm57.382 7.807h-7.95V65H65V53.384h-3.809v7.807z" fill="#0065FD"/></svg>