<svg width="65" height="65" fill="none" xmlns="http://www.w3.org/2000/svg"><g clip-path="url(#clip0)"><path d="M.251 5.904a1.905 1.905 0 00-.047 1.804l6.214 12.31a1.904 1.904 0 003.349.094l2.61-4.521 2.984 1.722V33.58c0 .688.371 1.322.97 1.66l14.265 8.023v2.695h-5.713a1.904 1.904 0 00-1.584 2.96l7.617 11.426a1.904 1.904 0 003.169 0l7.617-11.426a1.905 1.905 0 00-1.585-2.96h-5.712v-2.69l14.384-8.025c.603-.337.977-.973.977-1.663V17.297l2.981-1.71 2.613 4.525c.341.59.97.952 1.65.952l.06-.001a1.903 1.903 0 001.646-1.06l6.087-12.309a1.904 1.904 0 00-1.585-2.744l-13.704-.884a1.903 1.903 0 00-1.771 2.853l3.1 5.369-3.212 1.843-14.203-7.924a1.905 1.905 0 00-1.862.004l-14.09 7.925-3.195-1.844 3.103-5.373a1.906 1.906 0 00-1.77-2.853L1.782 4.95a1.903 1.903 0 00-1.532.954zm32.25 49.95l-4.06-6.089h8.118L32.5 55.854zM60.122 8.566l-3.243 6.56-1.782-3.085-2.277-3.946 7.302.471zM19.17 32.465V19.512l11.426 6.597v12.783L19.17 32.465zm26.787-.005l-11.553 6.445V26.112l11.553-6.63v12.979zM32.504 10.054l11.273 6.29-11.274 6.469L21.31 16.35l11.194-6.297zm-20.196-1.96l-2.277 3.944-1.8 3.12-3.327-6.59 7.404-.474z" fill="#0065FD"/></g><defs><clipPath id="clip0"><path fill="#fff" d="M0 0h65v65H0z"/></clipPath></defs></svg>