<svg width="65" height="65" fill="none" xmlns="http://www.w3.org/2000/svg"><g clip-path="url(#clip0)" fill="#0065FD"><path d="M64.536 46.772c-1.205-2.82-4.415-4.073-7.186-3.148l-11.532 3.844a5.734 5.734 0 00-.282-1.414 5.675 5.675 0 00-2.865-3.303L26.88 34.855a9.498 9.498 0 00-6.873-.64l-4.712 1.347a5.721 5.721 0 00-5.646-4.84H1.904A1.904 1.904 0 000 32.626v26.66c0 1.051.852 1.904 1.904 1.904h11.552a1.904 1.904 0 001.905-1.904v-1.021l9.845 4.922a17.102 17.102 0 0014.41.422l21.92-9.338a5.71 5.71 0 003-7.5zm-52.984 10.61H3.81V34.53h5.84c1.05 0 1.903.854 1.903 1.904v20.947zm48.488-6.613l-21.92 9.339a13.293 13.293 0 01-11.211-.327L15.36 54.007V39.503l5.69-1.625a5.695 5.695 0 014.125.383l15.792 7.896a1.905 1.905 0 11-1.704 3.407l-9.421-4.71a5.737 5.737 0 00-7.03 1.559 1.903 1.903 0 102.983 2.366 1.912 1.912 0 012.343-.52l9.422 4.711a5.716 5.716 0 006.376-.86l14.618-4.873c.95-.318 2.079.095 2.48 1.033.42.98-.046 2.092-.995 2.499zM42.017 13.584a1.904 1.904 0 11-3.809 0 1.904 1.904 0 013.809 0zm7.617 7.616a1.904 1.904 0 11-3.808.001 1.904 1.904 0 013.808 0zm-.554-8.963a1.904 1.904 0 00-2.693 0l-7.617 7.617a1.904 1.904 0 102.693 2.693l7.617-7.617a1.904 1.904 0 000-2.693z"/><path d="M23.693 22.688l19.042 15.234a1.9 1.9 0 002.374.004l19.17-15.234a1.905 1.905 0 00-1.185-3.396h-5.84V1.904A1.904 1.904 0 0055.35 0H32.5a1.904 1.904 0 00-1.905 1.904v17.392h-5.713a1.903 1.903 0 00-1.19 3.392zm8.806.417a1.905 1.905 0 001.905-1.904V3.809h19.042V21.2c0 1.052.853 1.904 1.904 1.904h2.288l-13.71 10.894-13.617-10.894h2.188z"/></g><defs><clipPath id="clip0"><path fill="#fff" d="M0 0h65v65H0z"/></clipPath></defs></svg>