<svg width="160" height="43" fill="none" xmlns="http://www.w3.org/2000/svg"><path fill-rule="evenodd" clip-rule="evenodd" d="M32.984 42.934h-.325V19.165h-2.598v23.822h-3.47v-29.02h-2.603v29.016h-3.467V19.165h-2.597v23.769h-.286L.003 25.308 25.313.01l25.31 25.297-17.639 17.626zM66.73 6.819v5.367h-2.34V6.82h-1.165v5.367h-2.347V6.82h-1.165v6.368h8.182V6.82H66.73zm8.537 6.368h1.337l-2.257-3.284 2.176-3.084h-1.257l-1.83 2.666h-1.219V6.819h-1.165v6.368h1.165v-2.684H73.4l1.865 2.684zm6.67.09a3.633 3.633 0 001.757-.422 3.15 3.15 0 001.229-1.17 3.398 3.398 0 000-3.365 3.14 3.14 0 00-1.229-1.169 3.858 3.858 0 00-3.513 0 3.13 3.13 0 00-1.229 1.173 3.381 3.381 0 000 3.357c.294.497.72.903 1.23 1.173.54.286 1.144.432 1.755.423zm0-1.036c-.4.006-.796-.092-1.146-.286a2.07 2.07 0 01-.801-.8 2.42 2.42 0 010-2.302c.187-.336.465-.614.8-.8a2.438 2.438 0 012.294 0c.336.187.614.464.801.8a2.42 2.42 0 010 2.301 2.078 2.078 0 01-.8.8 2.301 2.301 0 01-1.148.287zM88.8 6.819l-.092 2.638c0 .703-.096 1.402-.286 2.079a.825.825 0 01-.788.66.926.926 0 01-.272-.037l-.084 1.027c.212.053.428.083.646.09a1.34 1.34 0 001.056-.431c.29-.368.482-.803.555-1.265.132-.716.205-1.441.218-2.17l.055-1.591h2.512v5.366h1.165V6.82h-4.687.002zm12.705 6.368h1.237L99.866 6.82H98.7l-2.866 6.368h1.22l.627-1.473h3.185l.637 1.473zm-3.422-2.404l1.192-2.784 1.202 2.784h-2.394zM65.1 24.75v-5.369h-4.67l-.072 2.02a10.996 10.996 0 01-.296 2.46.984.984 0 01-.842.888h-.273l-.009 2.356h1.101v-1.357h4.888v1.355h1.092V24.75h-.92zm-3.705-3.242l.046-1.128h2.496v4.37h-3.231c.27-.34.44-.747.49-1.178.117-.68.184-1.37.201-2.06l-.002-.004zm10.048 4.33a3.631 3.631 0 001.756-.423c.51-.27.934-.674 1.229-1.17a3.393 3.393 0 000-3.365c-.294-.495-.72-.9-1.229-1.169a3.858 3.858 0 00-3.513 0c-.51.27-.934.677-1.228 1.173a3.382 3.382 0 000 3.357c.294.496.719.902 1.228 1.173a3.63 3.63 0 001.757.423zm0-1.037a2.3 2.3 0 01-1.147-.287 2.07 2.07 0 01-.8-.8 2.409 2.409 0 010-2.302c.187-.336.464-.613.8-.8a2.438 2.438 0 012.293 0c.337.187.614.464.802.8a2.42 2.42 0 010 2.302 2.068 2.068 0 01-.802.8c-.35.194-.745.293-1.146.287zm5.479-5.421l2.157 3.102-2.303 3.266h1.365l1.647-2.32 1.657 2.32h1.402l-2.312-3.31 2.139-3.057h-1.383l-1.503 2.127-1.501-2.128h-1.365zm11.24 6.458a3.637 3.637 0 001.757-.423c.508-.27.933-.675 1.228-1.17a3.4 3.4 0 000-3.365 3.15 3.15 0 00-1.228-1.169 3.86 3.86 0 00-3.514 0c-.51.27-.935.677-1.229 1.173a3.381 3.381 0 000 3.357c.294.496.72.902 1.229 1.173a3.63 3.63 0 001.757.423zm0-1.037a2.3 2.3 0 01-1.147-.287 2.07 2.07 0 01-.8-.8 2.41 2.41 0 010-2.302c.187-.336.464-.613.8-.8a2.438 2.438 0 012.293 0c.336.187.614.464.801.8a2.42 2.42 0 010 2.302 2.067 2.067 0 01-.801.8c-.35.194-.746.293-1.146.287zm11.503-.055v-5.365h-4.669l-.072 2.02a11.05 11.05 0 01-.296 2.46.984.984 0 01-.842.888h-.273l-.01 2.356h1.102v-1.357h4.887v1.355h1.092V24.75h-.919v-.004zm-3.704-3.238l.046-1.128h2.495v4.37h-3.23c.269-.34.439-.747.49-1.178.117-.68.184-1.37.2-2.06v-.004zm11.577-2.128v2.627h-3.295V19.38h-1.183v6.367h1.183V23.02h3.295v2.73h1.183v-6.37h-1.183v-.002zm7.281 6.458a3.634 3.634 0 001.754-.422 3.146 3.146 0 001.231-1.164 3.401 3.401 0 000-3.366 3.14 3.14 0 00-1.229-1.169 3.86 3.86 0 00-3.513 0 3.12 3.12 0 00-1.228 1.173 3.373 3.373 0 000 3.357c.294.495.719.9 1.228 1.169a3.634 3.634 0 001.757.423v-.001zm0-1.037a2.299 2.299 0 01-1.147-.287 2.07 2.07 0 01-.801-.8 2.42 2.42 0 010-2.302 2.08 2.08 0 01.801-.8 2.44 2.44 0 012.293 0c.336.187.614.464.801.8a2.42 2.42 0 010 2.302 2.064 2.064 0 01-.801.8c-.35.194-.745.293-1.146.287zm6.116.946h1.101l3.422-4.512v4.513h1.164v-6.367h-1.101l-3.422 4.521v-4.52h-1.165v6.366h.001zm2.828-6.795c.438.03.873-.09 1.234-.34a1.21 1.21 0 00.431-.978h-.818a.668.668 0 01-.232.518.947.947 0 01-.615.182.905.905 0 01-.61-.182.672.672 0 01-.218-.518h-.831a1.208 1.208 0 00.423.982c.361.248.796.366 1.233.333l.003.003zM64.18 31.942v2.63h-3.295v-2.63h-1.182v6.368h1.182v-2.729h3.295v2.729h1.183v-6.368H64.18zm5.515 5.376v-1.755h3.078v-.974h-3.078v-1.655h3.469v-.992h-4.651v6.368h4.778v-.992h-3.596zm11.677-.009v-5.367h-4.668l-.073 2.02a11.05 11.05 0 01-.296 2.46.986.986 0 01-.841.888h-.274l-.01 2.356h1.101v-1.355h4.887v1.355h1.093v-2.357h-.919zm-3.704-3.238l.046-1.129h2.495v4.367h-3.232c.27-.34.44-.747.491-1.178.117-.681.183-1.37.2-2.06zm11.295.927c.283-.11.525-.303.696-.554a1.53 1.53 0 00.241-.864 1.398 1.398 0 00-.6-1.21 2.851 2.851 0 00-1.675-.427h-2.849v6.368h3.021a2.955 2.955 0 001.794-.464 1.682 1.682 0 00.3-2.288 1.721 1.721 0 00-.928-.56zm-3.021-2.146h1.58c.309-.021.616.06.874.232a.807.807 0 01.3.677.792.792 0 01-.3.674 1.43 1.43 0 01-.874.227h-1.58v-1.81zm1.82 4.548h-1.82v-1.874h1.82c.836 0 1.255.31 1.256.928 0 .631-.42.946-1.256.946zm5.169.91h1.099l3.422-4.512v4.512h1.164v-6.368h-1.101l-3.422 4.521v-4.52h-1.165v6.367h.003zm16.009 0h1.365l-1.997-3.312 1.859-3.056h-1.256l-1.565 2.666h-1.102v-2.666h-1.151v2.666h-1.123l-1.556-2.666h-1.256l1.865 3.047-2.002 3.32h1.366l1.611-2.684h1.095v2.684h1.156v-2.683h1.09l1.601 2.684zm4.951-.992v-1.755h3.078v-.974h-3.078v-1.655h3.467v-.992h-4.651v6.368h4.781v-.992h-3.597zm13.26.992l-.014-6.368h-.965l-2.495 4.212-2.521-4.212h-.974v6.368h1.12v-4.165l2.093 3.44h.528l2.093-3.493.009 4.221h1.129l-.003-.003zm6.098.09a3.636 3.636 0 001.756-.423c.509-.27.934-.674 1.228-1.169a3.39 3.39 0 000-3.365 3.134 3.134 0 00-1.228-1.17 3.86 3.86 0 00-3.513 0c-.51.272-.935.677-1.229 1.174a3.384 3.384 0 000 3.356c.294.497.719.903 1.229 1.174.54.286 1.145.432 1.757.423zm0-1.036a2.297 2.297 0 01-1.147-.287 2.071 2.071 0 01-.801-.8 2.408 2.408 0 010-2.302 2.08 2.08 0 01.801-.8 2.432 2.432 0 012.293 0c.336.187.614.464.801.8a2.42 2.42 0 010 2.301 2.069 2.069 0 01-.801.801 2.3 2.3 0 01-1.146.287zm9.037 1.037c.491.006.978-.087 1.433-.273a2.906 2.906 0 001.097-.792l-.764-.727a2.218 2.218 0 01-1.702.755 2.39 2.39 0 01-1.175-.287 2.061 2.061 0 01-.809-.796 2.427 2.427 0 010-2.31 2.07 2.07 0 01.809-.796 2.39 2.39 0 011.175-.286 2.237 2.237 0 011.702.748l.764-.718a2.913 2.913 0 00-1.092-.791 3.636 3.636 0 00-1.429-.273 3.589 3.589 0 00-1.743.423c-.507.27-.93.675-1.224 1.169a3.412 3.412 0 000 3.366 3.12 3.12 0 001.219 1.169 3.588 3.588 0 001.747.423l-.008-.004zm9.62-6.459h-5.387v.998h2.102v5.367h1.174v-5.364h2.112v-.997l-.001-.004zm2.393 6.368h1.102l3.421-4.512v4.512h1.165v-6.368h-1.102l-3.422 4.521v-4.52h-1.164v6.367z" fill="#fff"/></svg>